<svg width="94" height="94" viewBox="0 0 94 94" fill="none" xmlns="http://www.w3.org/2000/svg">
<g clip-path="url(#clip0_31_181)">
<path d="M46.9453 92.8237C72.2832 92.8237 92.8237 72.2832 92.8237 46.9453C92.8237 21.6073 72.2832 1.06689 46.9453 1.06689C21.6073 1.06689 1.06689 21.6073 1.06689 46.9453C1.06689 72.2832 21.6073 92.8237 46.9453 92.8237Z" fill="#5D3AC7" stroke="url(#paint0_linear_31_181)" stroke-width="2.13388"/>
<path d="M16 58.5385V55.7692C16 54.1648 16.2676 52.8352 16.8028 51.7802C17.338 50.7033 18.1074 49.8242 19.1109 49.1429C20.1368 48.4396 21.3856 47.8681 22.8574 47.4286L25.0986 46.7363C25.9238 46.4725 26.615 46.1538 27.1726 45.7802C27.7301 45.3846 28.1538 44.9121 28.4437 44.3626C28.7559 43.8131 28.912 43.1868 28.912 42.4835V42.3516C28.912 41.2528 28.533 40.3846 27.7747 39.7473C27.0164 39.0879 25.9795 38.7582 24.6638 38.7582C23.3703 38.7582 22.3222 39.1099 21.5194 39.8132C20.7389 40.4945 20.3486 41.4836 20.3486 42.7802V43.3736H16.0669V42.8462C16.0669 41.1758 16.446 39.7582 17.2042 38.5934C17.9625 37.4286 18.9882 36.5385 20.2817 35.9231C21.5974 35.3077 23.0581 35 24.6638 35C26.2694 35 27.7189 35.3077 29.0124 35.9231C30.3058 36.5165 31.3205 37.3627 32.0564 38.4615C32.8147 39.5385 33.1937 40.8131 33.1937 42.2857V42.6154C33.1937 44.088 32.8816 45.3407 32.2571 46.3736C31.655 47.3847 30.8298 48.2198 29.7817 48.8791C28.7337 49.5164 27.5405 50.0439 26.2025 50.4615L24.0617 51.1209C23.1027 51.4066 22.3557 51.7252 21.8204 52.0769C21.2852 52.4066 20.9062 52.7802 20.6831 53.1978C20.4824 53.5934 20.3821 54.077 20.3821 54.6484V54.7802H32.993V58.5385H16ZM44.5921 59C42.7634 59 41.1801 58.6813 39.8421 58.044C38.5264 57.4066 37.5116 56.5055 36.7981 55.3407C36.0845 54.1759 35.7276 52.8242 35.7276 51.2857V50.956H40.0762V51.2528C40.0762 52.3516 40.4442 53.2967 41.1801 54.0879C41.9384 54.8571 43.0534 55.2418 44.5252 55.2418C45.997 55.2418 47.1233 54.8571 47.9037 54.0879C48.7066 53.2967 49.108 52.2747 49.108 51.022V50.6923C49.108 49.4616 48.7066 48.4835 47.9037 47.7582C47.1233 47.033 46.142 46.6703 44.9601 46.6703C44.3134 46.6703 43.7782 46.7583 43.3544 46.9341C42.9307 47.1099 42.5851 47.3297 42.3174 47.5934C42.0498 47.8571 41.8268 48.1209 41.6484 48.3846H36.4636V35.4615H52.4531V39.2857H40.7453V44.9231H41.3474C41.5704 44.6373 41.8715 44.3626 42.2505 44.0989C42.6296 43.8352 43.1203 43.6153 43.7224 43.4396C44.3245 43.2638 45.0381 43.1758 45.8632 43.1758C47.2458 43.1758 48.5059 43.4616 49.6432 44.033C50.7805 44.6044 51.6837 45.4506 52.3527 46.5714C53.0441 47.6703 53.3897 49.033 53.3897 50.6593V51.0549C53.3897 52.6813 53.0328 54.0879 52.3193 55.2747C51.6279 56.4615 50.6244 57.3846 49.3087 58.044C47.993 58.6813 46.4208 59 44.5921 59ZM59.4647 58.967L56.9224 56.956L74.919 35.033L77.4613 37.044L59.4647 58.967ZM73.581 58.8681C71.8861 58.8681 70.5592 58.4286 69.6003 57.5495C68.6413 56.6484 68.1619 55.4286 68.1619 53.8901V53.6593C68.1619 52.0989 68.6413 50.8792 69.6003 50C70.5592 49.0989 71.8861 48.6484 73.581 48.6484C75.2312 48.6484 76.5469 49.0989 77.5282 50C78.5093 50.8792 79 52.0989 79 53.6593V53.8901C79 55.4286 78.5205 56.6484 77.5616 57.5495C76.6027 58.4286 75.2757 58.8681 73.581 58.8681ZM73.581 56.1648C74.2276 56.1648 74.7294 55.967 75.0863 55.5714C75.4653 55.1758 75.6549 54.6593 75.6549 54.022V53.4945C75.6549 52.8572 75.4653 52.3407 75.0863 51.9451C74.7294 51.5495 74.2276 51.3517 73.581 51.3517C72.9342 51.3517 72.4213 51.5495 72.0422 51.9451C71.6854 52.3407 71.507 52.8572 71.507 53.4945V54.022C71.507 54.6593 71.6854 55.1758 72.0422 55.5714C72.4213 55.967 72.9342 56.1648 73.581 56.1648ZM60.8027 45.3516C59.1079 45.3516 57.7809 44.9121 56.8221 44.033C55.8631 43.1319 55.3837 41.9121 55.3837 40.3736V40.1429C55.3837 38.5825 55.8631 37.3627 56.8221 36.4835C57.7809 35.5825 59.1079 35.1319 60.8027 35.1319C62.4529 35.1319 63.7686 35.5825 64.7499 36.4835C65.7311 37.3627 66.2218 38.5825 66.2218 40.1429V40.3736C66.2218 41.9121 65.7422 43.1319 64.7834 44.033C63.8244 44.9121 62.4975 45.3516 60.8027 45.3516ZM60.8027 42.6484C61.4494 42.6484 61.9512 42.4506 62.308 42.0549C62.6871 41.6593 62.8767 41.1428 62.8767 40.5055V39.978C62.8767 39.3407 62.6871 38.8242 62.308 38.4286C61.9512 38.033 61.4494 37.8352 60.8027 37.8352C60.1559 37.8352 59.6431 38.033 59.264 38.4286C58.9072 38.8242 58.7288 39.3407 58.7288 39.978V40.5055C58.7288 41.1428 58.9072 41.6593 59.264 42.0549C59.6431 42.4506 60.1559 42.6484 60.8027 42.6484Z" fill="url(#paint1_linear_31_181)"/>
</g>
<defs>
<linearGradient id="paint0_linear_31_181" x1="7.17632" y1="-3.13692e-05" x2="112.84" y2="77.0719" gradientUnits="userSpaceOnUse">
<stop stop-color="#EB48F7"/>
<stop offset="0.583333" stop-color="#F8D481"/>
<stop offset="0.942708" stop-color="#CCFF02"/>
</linearGradient>
<linearGradient id="paint1_linear_31_181" x1="82.6207" y1="21.6829" x2="28.1657" y2="93.9217" gradientUnits="userSpaceOnUse">
<stop stop-color="#EB48F7"/>
<stop offset="0.583333" stop-color="#F8D481"/>
<stop offset="0.942708" stop-color="#CCFF02"/>
</linearGradient>
<clipPath id="clip0_31_181">
<rect width="93.8906" height="93.8906" fill="white"/>
</clipPath>
</defs>
</svg>
