<svg width="91" height="89" viewBox="0 0 91 89" fill="none" xmlns="http://www.w3.org/2000/svg">
<g clip-path="url(#clip0_43_167)">
<path d="M56.1716 58.469H49.7923L46.8981 55.4865H50.1747L56.1716 58.469ZM45.4292 55.7664L42.1613 59.1949L45.4292 63.6555L48.7232 59.16L45.4292 55.7751V55.7664ZM40.6751 55.4865L34.6781 58.469H41.1271L43.9691 55.4865H40.6751ZM34.3566 40.8889L21.7977 41.7461L19.0512 46.539H36.5815L34.3566 40.8889ZM69.0521 41.7373L56.4932 40.8802L54.2682 46.5303H71.7985L69.0521 41.7373ZM66.3752 15.7783L61.8557 27.2535L85.2092 40.3554L66.3665 15.7783H66.3752ZM61.3951 28.4255L56.9712 39.6732L84.8267 41.5711L61.3951 28.4255ZM29.4547 28.4255L6.02304 41.5711L33.8785 39.6732L29.4547 28.4255ZM24.4746 15.7871L5.64062 40.3554L28.9941 27.2535L24.4833 15.7871H24.4746ZM60.6303 17.3701L62.5858 22.0144L64.8977 16.1457L60.6303 17.3701ZM25.9521 16.1457L28.264 22.0144L30.2195 17.3701L25.9521 16.1457ZM35.8167 0V6.58596H41.692L35.8167 0ZM45.4205 0.559763L42.509 5.63262L43.3607 6.58596H47.4804L48.3321 5.63262L45.4205 0.559763ZM49.1491 6.58596H55.0244V0L49.1491 6.58596ZM55.5285 8.44892C53.3644 11.1953 50.3398 13.7404 48.2278 15.3672L61.3516 22.2943L55.5198 8.44892H55.5285ZM36.4164 7.83668C37.3116 8.94746 38.3545 10.032 39.4149 11.0291H51.4175C52.4865 10.032 53.5295 8.94746 54.4247 7.83668H36.4164ZM40.8055 12.2798C42.8219 14.0291 44.6731 15.3672 45.4205 15.892C46.168 15.3672 48.0192 14.0291 50.0356 12.2798H40.8055ZM35.3213 8.44892L29.4895 22.2943L42.6133 15.3672C40.5013 13.7492 37.4767 11.1953 35.3213 8.44892ZM47.1327 16.1981C46.6634 16.548 46.281 16.8104 46.0463 16.9766V54.2445H49.8965L61.821 23.9474L47.1327 16.1894V16.1981ZM43.7171 16.1981L29.0288 23.9561L40.9532 54.2533H44.8122V16.9766C44.5775 16.8104 44.1951 16.548 43.7257 16.1981H43.7171Z" fill="#2B2752"/>
<path d="M17.313 82.3462H18.0431V88.3462H17.313V82.3462ZM21.6934 88.4161C20.4332 88.4161 19.5119 87.524 19.5119 86.1158C19.5119 84.7077 20.4071 83.8243 21.6934 83.8243C22.9797 83.8243 23.8141 84.7339 23.8141 85.9497C23.8141 86.1158 23.8141 86.2383 23.788 86.3957H20.2593C20.3115 87.2966 20.9459 87.7951 21.6934 87.7951C22.3539 87.7951 22.7711 87.454 22.9362 86.973H23.7271C23.5012 87.7864 22.7885 88.4161 21.6934 88.4161ZM20.268 85.801H23.0579C23.0579 84.9351 22.4235 84.454 21.6673 84.454C20.9459 84.454 20.3549 84.9351 20.2767 85.801H20.268ZM27.082 83.8243C27.9076 83.8243 28.4726 84.2441 28.7246 84.7077V83.8943H29.4634V88.3374H28.7246V87.5065C28.4552 87.9876 27.8903 88.4074 27.0733 88.4074C25.9 88.4074 24.9874 87.4715 24.9874 86.0984C24.9874 84.7252 25.9 83.8156 27.082 83.8156V83.8243ZM27.2297 84.4715C26.4214 84.4715 25.7348 85.0663 25.7348 86.1071C25.7348 87.1479 26.4214 87.7689 27.2297 87.7689C28.038 87.7689 28.7333 87.1567 28.7333 86.1158C28.7333 85.075 28.038 84.4715 27.2297 84.4715ZM31.9317 88.3462H31.2016V83.903H31.9317V84.629C32.1837 84.1304 32.6531 83.8243 33.3571 83.8243V84.5852H33.1659C32.4619 84.5852 31.9317 84.9001 31.9317 85.9322V88.3462ZM37.92 85.8272C37.92 84.9176 37.4246 84.454 36.6858 84.454C35.9471 84.454 35.4169 84.9263 35.4169 85.8797V88.3374H34.6868V83.8943H35.4169V84.524C35.7037 84.0605 36.2426 83.8068 36.8336 83.8068C37.8591 83.8068 38.6413 84.4366 38.6413 85.7135V88.3374H37.92V85.8185V85.8272ZM43.126 84.5065H42.5524V83.8943H43.126V82.7748H43.8561V83.8943H45.012V84.5065H43.8561V87.1304C43.8561 87.5677 44.0212 87.7252 44.4645 87.7252H45.0034V88.3462H44.3428C43.5606 88.3462 43.1174 88.0225 43.1174 87.1304V84.5065H43.126ZM48.3147 88.4161C47.0632 88.4161 46.1158 87.524 46.1158 86.1158C46.1158 84.7077 47.0979 83.8243 48.3495 83.8243C49.601 83.8243 50.5831 84.7077 50.5831 86.1158C50.5831 87.524 49.575 88.4161 48.3147 88.4161ZM48.3147 87.7689C49.0796 87.7689 49.827 87.2441 49.827 86.1158C49.827 84.9876 49.0969 84.4715 48.3321 84.4715C47.5673 84.4715 46.8546 84.9963 46.8546 86.1158C46.8546 87.2354 47.5412 87.7689 48.306 87.7689H48.3147ZM56.5801 88.4161C55.3199 88.4161 54.3986 87.524 54.3986 86.1158C54.3986 84.7077 55.2938 83.8243 56.5801 83.8243C57.8664 83.8243 58.7008 84.7339 58.7008 85.9497C58.7008 86.1158 58.7008 86.2383 58.6747 86.3957H55.1461C55.1982 87.2966 55.8327 87.7951 56.5801 87.7951C57.2407 87.7951 57.6578 87.454 57.823 86.973H58.6139C58.3879 87.7864 57.6752 88.4161 56.5801 88.4161ZM55.1548 85.801H57.9446C57.9446 84.9351 57.3102 84.454 56.554 84.454C55.8327 84.454 55.2417 84.9351 55.1634 85.801H55.1548ZM61.9687 83.8243C62.7944 83.8243 63.3593 84.2441 63.6114 84.7077V83.8943H64.3501V88.3374H63.6114V87.5065C63.3419 87.9876 62.777 88.4074 61.96 88.4074C60.7867 88.4074 59.8741 87.4715 59.8741 86.0984C59.8741 84.7252 60.7867 83.8156 61.9687 83.8156V83.8243ZM62.1165 84.4715C61.3082 84.4715 60.6216 85.0663 60.6216 86.1071C60.6216 87.1479 61.3082 87.7689 62.1165 87.7689C62.9247 87.7689 63.62 87.1567 63.62 86.1158C63.62 85.075 62.9247 84.4715 62.1165 84.4715ZM66.8184 88.3462H66.0884V83.903H66.8184V84.629C67.0705 84.1304 67.5398 83.8243 68.2438 83.8243V84.5852H68.0526C67.3486 84.5852 66.8184 84.9001 66.8184 85.9322V88.3462ZM72.8067 85.8272C72.8067 84.9176 72.3113 84.454 71.5725 84.454C70.8338 84.454 70.3036 84.9263 70.3036 85.8797V88.3374H69.5736V83.8943H70.3036V84.524C70.5904 84.0605 71.1293 83.8068 71.7203 83.8068C72.7459 83.8068 73.5281 84.4366 73.5281 85.7135V88.3374H72.8067V85.8185V85.8272Z" fill="#2B2752"/>
<path d="M29.5155 67.5391L35.0606 78.4457H32.8095L29.4112 71.6149L26.013 78.4457H23.7619L29.3069 67.5391H29.5155ZM15.4096 70.4079C15.7225 70.0668 16.0962 69.7956 16.5308 69.5945C16.9567 69.3933 17.426 69.2884 17.9214 69.2884C18.2256 69.2884 18.5211 69.3321 18.8079 69.4196C19.0947 69.507 19.3641 69.6295 19.6249 69.7956C19.8856 69.9531 20.1203 70.1367 20.3289 70.3467C20.5375 70.5566 20.7287 70.7752 20.8851 71.0201L22.832 70.233C22.5973 69.8044 22.3018 69.4108 21.9541 69.061C21.6065 68.7111 21.2241 68.405 20.8069 68.1513C20.3897 67.8977 19.9291 67.7053 19.4424 67.5653C18.9556 67.4254 18.4429 67.3554 17.9214 67.3554C17.1479 67.3554 16.4265 67.5041 15.7399 67.8015C15.062 68.0989 14.4623 68.5012 13.9495 69.0172C13.4367 69.5333 13.0369 70.128 12.7414 70.819C12.4459 71.5012 12.2981 72.2359 12.2981 73.0143C12.2981 73.7927 12.4459 74.5186 12.7414 75.2096C13.0369 75.8918 13.4367 76.4953 13.9495 77.0113C14.4623 77.5274 15.0533 77.9297 15.7399 78.2271C16.4178 78.5244 17.1479 78.6731 17.9214 78.6731C18.4429 78.6731 18.9556 78.6032 19.4424 78.4632C19.9291 78.3233 20.3897 78.1309 20.8069 77.8772C21.2241 77.6236 21.6065 77.3175 21.9541 76.9676C22.3018 76.6178 22.5886 76.2154 22.832 75.7781L20.8851 74.9909C20.7287 75.2271 20.5375 75.4545 20.3289 75.6732C20.1203 75.8831 19.8856 76.0755 19.6249 76.2329C19.3641 76.3904 19.0947 76.5128 18.8079 76.609C18.5211 76.6965 18.2256 76.7402 17.9214 76.7402C17.426 76.7402 16.9653 76.6352 16.5308 76.4341C16.1049 76.2329 15.7312 75.9618 15.4096 75.6207C15.0967 75.2796 14.8447 74.886 14.6535 74.4399C14.4623 73.9939 14.3754 73.5216 14.3754 73.023C14.3754 72.5245 14.471 72.0697 14.6535 71.6149C14.8447 71.1601 15.0967 70.7665 15.4096 70.4254V70.4079ZM5.54503 67.5391L0 78.4457H2.25104L5.64932 71.6149L9.04761 78.4457H11.2986L5.75362 67.5391H5.54503ZM74.4928 78.4457H76.57V67.5391H74.4928V78.4457ZM65.4452 73.8364L60.1175 67.5391H59.9871V78.4457H62.0643V72.9268L65.4452 77.0288L68.8435 72.9268V78.4457H70.9207V67.5391H70.7903L65.4539 73.8364H65.4452ZM90.8498 76.539V78.4632H85.4525C84.4443 78.4632 83.5752 78.3145 82.8364 78.0259C82.0977 77.7285 81.4893 77.3349 81.0026 76.8277C80.5159 76.3291 80.1595 75.7344 79.9249 75.0609C79.6902 74.3874 79.5772 73.6615 79.5772 72.9006C79.5772 72.1396 79.725 71.4137 80.0118 70.7402C80.3073 70.0668 80.6984 69.472 81.2025 68.9735C81.6979 68.475 82.2889 68.0726 82.9494 67.784C83.6187 67.4866 84.3313 67.3467 85.0962 67.3467C85.861 67.3467 86.5737 67.4954 87.2429 67.784C87.9121 68.0814 88.5031 68.475 88.9986 68.9735C89.4939 69.472 89.8938 70.0668 90.1806 70.7402C90.4761 71.4137 90.6151 72.1396 90.6151 72.9006C90.6151 73.2329 90.5804 73.5653 90.5021 73.9151C90.4239 74.265 90.3109 74.5974 90.1371 74.9297C89.972 75.2621 89.7547 75.5595 89.4939 75.8393C89.2332 76.1192 88.9116 76.3554 88.5205 76.539H90.8324H90.8498ZM88.2772 74.2563C88.4597 73.8277 88.5553 73.3729 88.5553 72.9006C88.5553 72.4283 88.4597 71.9647 88.2772 71.5362C88.0947 71.1076 87.8513 70.7315 87.5384 70.4079C87.2255 70.093 86.8605 69.8394 86.4433 69.647C86.0261 69.4545 85.5742 69.3671 85.1049 69.3671C84.6355 69.3671 84.1836 69.4633 83.7664 69.647C83.3492 69.8394 82.9842 70.093 82.6713 70.4079C82.3584 70.7227 82.1151 71.0988 81.9325 71.5362C81.75 71.9647 81.6631 72.4283 81.6631 72.9006C81.6631 73.3729 81.75 73.8277 81.9325 74.2563C82.1151 74.6848 82.3584 75.0609 82.6713 75.3845C82.9842 75.7081 83.3492 75.9618 83.7664 76.1542C84.1836 76.3466 84.6355 76.4341 85.1049 76.4341C85.5742 76.4341 86.0261 76.3379 86.4433 76.1542C86.8605 75.9618 87.2255 75.7081 87.5384 75.3845C87.8513 75.0609 88.0947 74.6848 88.2772 74.2563ZM46.5243 70.6703C46.7938 71.3612 46.9328 72.1396 46.9328 72.988C46.9328 73.8364 46.7938 74.6323 46.5243 75.3233C46.2549 76.0143 45.8551 76.6003 45.3163 77.0901C44.8295 77.5361 44.2646 77.8772 43.6215 78.1046C42.9783 78.332 42.2656 78.4457 41.5008 78.4457H37.2247V67.5216H41.5008C43.0478 67.5216 44.3255 67.9764 45.3249 68.8948C45.8551 69.3846 46.2636 69.9706 46.533 70.6615L46.5243 70.6703ZM44.8556 73.0055C44.8556 72.2534 44.7513 71.6324 44.5427 71.1601C44.3341 70.6878 44.0647 70.3204 43.7431 70.0668C43.4129 69.8044 43.0565 69.6382 42.6567 69.542C42.2569 69.4545 41.8745 69.4108 41.5008 69.4108H39.2932V76.6003H41.5008C41.8832 76.6003 42.2743 76.5565 42.6741 76.4691C43.0652 76.3816 43.4302 76.2067 43.7518 75.9355C44.0734 75.6732 44.3341 75.3058 44.5427 74.8423C44.7513 74.3787 44.8556 73.7665 44.8556 73.0055ZM49.3055 78.4457H57.3015V76.5653H51.3828V74.0026H56.6323V72.1047H51.3828V69.3758H57.3015V67.5216H49.3055V78.4457Z" fill="#2B2752"/>
</g>
<defs>
<clipPath id="clip0_43_167">
<rect width="90.8498" height="88.4163" fill="white"/>
</clipPath>
</defs>
</svg>
