<svg width="737" height="548" viewBox="0 0 737 548" fill="none" xmlns="http://www.w3.org/2000/svg">
<g clip-path="url(#clip0_11_58)">
<mask id="mask0_11_58" style="mask-type:luminance" maskUnits="userSpaceOnUse" x="-10" y="0" width="747" height="548">
<path d="M-10 330.392C-10 390.463 14.3884 444.888 53.8458 484.273C93.3031 523.657 147.783 548 208.012 548C268.241 548 322.721 523.657 362.179 484.273C401.59 444.935 425.978 390.602 426.024 330.577V329.837C426.024 298.829 438.589 270.737 458.944 250.42C479.299 230.104 507.443 217.562 538.508 217.562C569.573 217.562 597.717 230.15 618.072 250.42C629.941 262.268 639.168 276.754 644.778 292.905L711.313 254.539L737 239.73C726.104 215.849 710.989 194.283 692.628 175.956C653.171 136.572 598.691 112.229 538.461 112.229C478.232 112.229 423.752 136.572 384.295 175.956C344.838 215.34 320.449 269.719 320.449 329.837V330.392C320.449 361.4 307.838 389.491 287.483 409.808C267.129 430.125 238.985 442.713 207.919 442.713C176.854 442.713 148.71 430.125 128.356 409.808C109.717 391.204 97.5687 366.074 95.6677 338.167V0L-10 60.6266C-10 150.502 -9.39724 240.563 -10 330.392Z" fill="white"/>
</mask>
<g mask="url(#mask0_11_58)">
<path d="M737 0H-10V548H737V0Z" fill="url(#paint0_linear_11_58)"/>
</g>
<mask id="mask1_11_58" style="mask-type:luminance" maskUnits="userSpaceOnUse" x="95" y="111" width="640" height="437">
<path d="M95.7604 142.403C128.541 122.734 166.932 111.396 207.966 111.396C268.149 111.396 322.675 135.739 362.132 175.123C401.543 214.461 425.932 268.793 425.978 328.818V329.559C425.978 360.566 438.543 388.658 458.898 408.975C479.252 429.292 507.396 441.88 538.461 441.88C569.527 441.88 597.671 429.292 618.025 408.975C628.689 398.331 637.174 385.604 642.877 371.442L711.267 410.873L734.728 424.386C724.018 446.415 709.737 466.362 692.581 483.439C653.124 522.824 598.644 547.167 538.415 547.167C478.186 547.167 423.706 522.824 384.249 483.439C344.791 444.055 320.403 389.676 320.403 329.559V329.003C320.403 297.996 307.791 269.904 287.437 249.587C267.082 229.27 238.938 216.682 207.873 216.682C176.808 216.682 148.664 229.27 128.309 249.587C109.67 268.192 97.5223 293.322 95.6213 321.228V142.403H95.7604Z" fill="white"/>
</mask>
<g mask="url(#mask1_11_58)">
<path d="M734.774 111.396H95.7604V547.167H734.774V111.396Z" fill="url(#paint1_linear_11_58)"/>
</g>
</g>
<defs>
<linearGradient id="paint0_linear_11_58" x1="-10" y1="273.977" x2="737" y2="273.977" gradientUnits="userSpaceOnUse">
<stop stop-color="#96CCD4"/>
<stop offset="0.5" stop-color="#1F90B3"/>
<stop offset="1" stop-color="#141437"/>
</linearGradient>
<linearGradient id="paint1_linear_11_58" x1="95.7604" y1="329.281" x2="734.774" y2="329.281" gradientUnits="userSpaceOnUse">
<stop stop-color="#96CCD4"/>
<stop offset="0.5" stop-color="#1F90B3"/>
<stop offset="1" stop-color="#141437"/>
</linearGradient>
<clipPath id="clip0_11_58">
<rect width="747" height="548" fill="white" transform="translate(-10)"/>
</clipPath>
</defs>
</svg>
