<svg width="173" height="96" viewBox="0 0 173 96" fill="none" xmlns="http://www.w3.org/2000/svg">
<g clip-path="url(#clip0_43_38)">
<path d="M11.6412 37.8537C9.83425 37.8537 8.20865 37.6214 6.77114 37.1534C5.33027 36.6887 4.11107 35.9346 3.11019 34.8976C2.10931 33.8606 1.34017 32.5138 0.806141 30.8573C0.272112 29.2042 0.00341797 27.1975 0.00341797 24.8374C0.00341797 22.4772 0.309057 20.3527 0.923694 18.6726C1.53833 16.9926 2.378 15.629 3.43934 14.5819C4.50068 13.5348 5.74003 12.7772 7.15067 12.3126C8.56467 11.848 10.0593 11.6123 11.6412 11.6123H22.1471C22.3923 11.6123 22.5938 11.7234 22.7517 11.9423C22.9096 12.1611 22.9902 12.4204 22.9902 12.72V15.3058C22.9902 16.0801 22.7752 16.7198 22.3453 17.2181C21.9154 17.7198 21.1832 17.969 20.1454 17.969H12.2458C11.2113 17.969 10.375 18.171 9.74357 18.575C9.11214 18.979 8.61841 19.5042 8.26911 20.1473C7.91645 20.7904 7.68134 21.5075 7.55707 22.2987C7.4328 23.09 7.37234 23.8744 7.37234 24.6488C7.37234 25.4232 7.42608 26.2414 7.5302 27.0494C7.63432 27.8574 7.85935 28.5948 8.20194 29.2547C8.54452 29.9146 9.03489 30.4499 9.67639 30.8641C10.3179 31.2782 11.1744 31.4836 12.2424 31.4836H22.3822C22.6106 31.4836 22.8021 31.5947 22.9599 31.8135C23.1178 32.0324 23.1984 32.2916 23.1984 32.5913V35.177C23.1984 35.9682 22.9801 36.6113 22.5401 37.1029C22.1001 37.5944 21.3646 37.8436 20.3267 37.8436H11.6379L11.6412 37.8537Z" fill="#06D46F"/>
<path d="M36.8412 37.8536C35.0342 37.8536 33.4086 37.6213 31.9711 37.1533C30.5336 36.6853 29.3077 35.9379 28.2967 34.9076C27.2858 33.8774 26.5133 32.5373 25.9792 30.8808C25.4452 29.2277 25.1765 27.211 25.1765 24.834C25.1765 22.4569 25.4822 20.3762 26.0968 18.6961C26.7114 17.0161 27.5511 15.6525 28.6124 14.6054C29.6738 13.5583 30.9131 12.7974 32.3238 12.3227C33.7378 11.8479 35.2425 11.6089 36.8412 11.6089H41.6071C43.1891 11.6089 44.6837 11.8378 46.0977 12.2957C47.5117 12.7536 48.7477 13.5011 49.8124 14.5381C50.8737 15.5751 51.7167 16.9353 52.3415 18.6153C52.9662 20.2954 53.2752 22.3694 53.2752 24.8306C53.2752 27.2918 53.0065 29.1907 52.4724 30.8371C51.9351 32.4835 51.1659 33.8235 50.155 34.8639C49.144 35.9009 47.9214 36.6584 46.4806 37.1331C45.0397 37.6079 43.4175 37.8469 41.6105 37.8469H36.8445L36.8412 37.8536ZM41.0798 31.5206C42.1143 31.5206 42.9506 31.3152 43.582 30.901C44.2135 30.4869 44.7005 29.955 45.0431 29.3052C45.3856 28.6553 45.614 27.918 45.7282 27.0999C45.8424 26.2817 45.8995 25.477 45.8995 24.6858C45.8995 23.9653 45.8525 23.2078 45.7551 22.4165C45.6577 21.6253 45.4427 20.9048 45.1102 20.2516C44.7777 19.6018 44.2907 19.0631 43.6492 18.6423C43.0077 18.2214 42.1512 18.0093 41.0832 18.0093H37.4222C36.3676 18.0093 35.5246 18.2147 34.8932 18.6288C34.2617 19.0429 33.768 19.5715 33.4187 20.2112C33.066 20.8543 32.8343 21.5715 32.7201 22.3627C32.6059 23.1539 32.5488 23.9283 32.5488 24.6858C32.5488 25.4434 32.6025 26.2009 32.7067 27.0089C32.8108 27.8204 33.0324 28.5577 33.365 29.2277C33.6975 29.8977 34.1912 30.4465 34.8394 30.8775C35.4876 31.3084 36.3475 31.5239 37.4189 31.5239H41.0798V31.5206Z" fill="#06D46F"/>
<path d="M67.5731 37.8537C65.7662 37.8537 64.1406 37.6214 62.703 37.1534C61.2655 36.6854 60.0396 35.938 59.0287 34.9077C58.0177 33.8774 57.2452 32.5374 56.7112 30.8809C56.1771 29.2278 55.9084 27.211 55.9084 24.834C55.9084 22.457 56.2141 20.3763 56.8287 18.6962C57.4434 17.0162 58.283 15.6526 59.3444 14.6055C60.4057 13.5584 61.6451 12.7975 63.0557 12.3227C64.4697 11.848 65.9744 11.609 67.5731 11.609H75.5265V2.58576C75.5265 1.65313 75.7951 0.98986 76.3292 0.592569C76.8632 0.195278 77.5988 0 78.5291 0H82.4789C83.0062 0 83.2682 0.262616 83.2682 0.791214V35.1367C83.2682 36.1231 83.0129 36.8234 82.5058 37.2342C81.9953 37.6483 81.3638 37.8537 80.6081 37.8537H67.5731ZM75.5265 18.0027H68.1004C67.066 18.0027 66.2296 18.208 65.5982 18.6222C64.9668 19.0363 64.4798 19.5649 64.1372 20.2046C63.7946 20.8477 63.5662 21.5648 63.452 22.356C63.3378 23.1472 63.2807 23.9216 63.2807 24.6792C63.2807 25.4367 63.3345 26.2447 63.4386 27.0562C63.5427 27.8642 63.7644 28.6016 64.0969 29.2615C64.4294 29.9214 64.9164 30.4634 65.5579 30.8843C66.1994 31.3052 67.0458 31.5173 68.1004 31.5173H75.5265V18.0027Z" fill="#06D46F"/>
<path d="M97.6466 37.8537C95.9438 37.8537 94.4122 37.6247 93.0519 37.1668C91.6917 36.7089 90.5296 35.9581 89.5623 34.911C88.595 33.8639 87.8561 32.5037 87.3388 30.8338C86.8216 29.1638 86.563 27.11 86.563 24.6825C86.563 22.255 86.8585 20.2921 87.4463 18.6356C88.0341 16.9825 88.8334 15.6357 89.841 14.5953C90.8486 13.5584 92.0275 12.8008 93.371 12.3261C94.7145 11.8514 96.1386 11.6123 97.65 11.6123H102.231C103.689 11.6123 104.975 11.8211 106.09 12.2318C107.205 12.6459 108.139 13.2082 108.895 13.922C109.65 14.6358 110.221 15.4707 110.608 16.4303C110.994 17.3899 111.189 18.4235 111.189 19.5312C111.189 21.521 110.601 23.1001 109.425 24.2684C108.25 25.44 106.46 26.2616 104.055 26.7363L94.4693 28.8204C94.8186 29.79 95.356 30.4735 96.0747 30.8809C96.7935 31.2849 97.5861 31.4869 98.446 31.4869H109.425C109.654 31.4869 109.845 31.598 110.007 31.8169C110.164 32.0357 110.245 32.295 110.245 32.5946V35.1804C110.245 35.9379 110.037 36.5709 109.627 37.0827C109.214 37.5944 108.515 37.847 107.535 37.847H97.66L97.6466 37.8537ZM101.623 21.5143C102.134 21.3729 102.537 21.2079 102.836 21.0126C103.135 20.8207 103.363 20.6153 103.521 20.4066C103.679 20.1945 103.78 19.9891 103.823 19.7871C103.867 19.5851 103.89 19.4234 103.89 19.2989C103.89 19.016 103.736 18.7265 103.43 18.4268C103.121 18.1272 102.725 17.9791 102.231 17.9791H98.4392C97.9489 17.9791 97.4417 18.0498 96.9245 18.1912C96.4072 18.3326 95.937 18.5952 95.5172 18.9824C95.0974 19.3696 94.7481 19.9116 94.476 20.6052C94.204 21.3022 94.0663 22.1944 94.0663 23.2852L101.623 21.5176V21.5143Z" fill="#06D46F"/>
<path d="M125.954 37.8537C123.898 37.8537 122.145 37.6416 120.687 37.2208C119.23 36.7999 118.041 36.1703 117.12 35.332C116.2 34.497 115.528 33.4499 115.105 32.1907C114.685 30.9315 114.474 29.477 114.474 27.8205V14.3328C114.474 13.8412 114.551 13.4204 114.712 13.0803C114.873 12.7403 115.082 12.4574 115.344 12.2352C115.606 12.0164 115.904 11.8581 116.24 11.7605C116.573 11.6629 116.925 11.6157 117.295 11.6157H121.325C121.624 11.6157 121.826 11.6864 121.93 11.8278C122.034 11.9692 122.088 12.1713 122.088 12.4339V27.5073C122.088 27.9989 122.175 28.4837 122.35 28.9585C122.524 29.4332 122.796 29.8608 123.166 30.2379C123.535 30.615 124.009 30.9214 124.587 31.1503C125.164 31.3792 125.86 31.4937 126.666 31.4937H133.857V14.3362C133.857 13.3699 134.082 12.6729 134.528 12.2521C134.975 11.8312 135.596 11.6191 136.386 11.6191H140.362C141.101 11.6191 141.467 11.8918 141.467 12.4372V35.1905C141.467 35.6821 141.393 36.0962 141.242 36.4329C141.094 36.7662 140.886 37.039 140.624 37.2511C140.362 37.4632 140.053 37.6147 139.704 37.7123C139.351 37.81 138.985 37.8571 138.599 37.8571H125.96L125.954 37.8537Z" fill="#06D46F"/>
<path d="M146.206 49.4694C145.679 49.4694 145.417 49.2068 145.417 48.6782V14.3328C145.417 13.3463 145.672 12.6494 146.179 12.2352C146.69 11.8211 147.321 11.6157 148.074 11.6157H161.109C162.916 11.6157 164.541 11.848 165.982 12.316C167.423 12.784 168.646 13.5315 169.657 14.5584C170.664 15.5886 171.437 16.9286 171.974 18.5851C172.508 20.2383 172.777 22.255 172.777 24.632C172.777 27.0091 172.468 29.0898 171.856 30.7698C171.242 32.4499 170.402 33.8135 169.341 34.8606C168.279 35.9077 167.04 36.6686 165.629 37.1433C164.215 37.6181 162.711 37.8571 161.112 37.8571H153.159V46.8837C153.159 47.8163 152.89 48.4796 152.356 48.8769C151.822 49.2742 151.086 49.4694 150.156 49.4694H146.206ZM160.585 31.4668C161.619 31.4668 162.456 31.2614 163.087 30.8473C163.718 30.4332 164.205 29.9046 164.548 29.2649C164.891 28.6218 165.119 27.9046 165.233 27.1134C165.347 26.3222 165.404 25.5478 165.404 24.7903C165.404 24.0327 165.351 23.2247 165.247 22.4133C165.142 21.6052 164.921 20.8679 164.588 20.208C164.256 19.5481 163.769 19.006 163.127 18.5851C162.486 18.1643 161.639 17.9522 160.585 17.9522H153.159V31.4668H160.585Z" fill="#06D46F"/>
<path d="M106.53 75.135L113.422 68.2262L120.314 75.135C122.152 73.3371 123.294 70.8321 123.294 68.0578C123.294 62.5934 118.874 58.1626 113.422 58.1626C107.971 58.1626 103.551 62.5934 103.551 68.0578C103.551 70.8321 104.693 73.3371 106.53 75.135Z" fill="url(#paint0_linear_43_38)"/>
<path d="M146.549 73.5594L139.657 66.6506L146.549 59.7418C144.755 57.9001 142.257 56.7554 139.489 56.7554C134.038 56.7554 129.618 61.1862 129.618 66.6506C129.618 72.115 134.038 76.5458 139.489 76.5458C142.257 76.5458 144.755 75.4011 146.549 73.5594Z" fill="url(#paint1_linear_43_38)"/>
<path d="M169.798 58.1626L162.906 65.0714L156.014 58.1626C154.177 59.9605 153.035 62.4655 153.035 65.2398C153.035 70.7042 157.455 75.135 162.906 75.135C168.357 75.135 172.777 70.7042 172.777 65.2398C172.777 62.4655 171.635 59.9605 169.798 58.1626Z" fill="url(#paint2_linear_43_38)"/>
<path d="M2.14616 95.0907C1.81701 94.7573 1.65244 94.2893 1.65244 93.69V90.3602H0.288818V90.0067H1.65244V88.1953H2.01518V90.0067H4.24533V90.3602H2.01518V93.6766C2.01518 94.1782 2.14616 94.5621 2.4115 94.828C2.67683 95.094 3.05636 95.2253 3.55009 95.2253H4.289V95.589H3.5165C2.93209 95.589 2.47531 95.4206 2.14616 95.0873V95.0907Z" fill="#2C2460"/>
<path d="M5.9751 87.2357H6.33783V91.2591C6.55615 90.8416 6.87186 90.5083 7.2749 90.2558C7.6813 90.0066 8.12801 89.8787 8.62173 89.8787C9.32705 89.8787 9.88795 90.1043 10.3111 90.5554C10.731 91.0066 10.9426 91.6362 10.9426 92.4409V95.5855H10.5798V92.5082C10.5798 91.7709 10.4052 91.2086 10.0559 90.8214C9.70658 90.4342 9.22965 90.2389 8.62173 90.2389C8.19854 90.2389 7.80893 90.3399 7.46299 90.5453C7.11705 90.7507 6.83828 91.0302 6.64011 91.3837C6.43859 91.7372 6.33783 92.1311 6.33783 92.5621V95.5822H5.9751V87.2256V87.2357Z" fill="#2C2460"/>
<path d="M14.1567 95.3332C13.7133 95.0773 13.364 94.7306 13.1088 94.2828C12.8535 93.835 12.7292 93.34 12.7292 92.7845C12.7292 92.229 12.8535 91.7441 13.1054 91.3031C13.3573 90.862 13.6999 90.5152 14.1332 90.2594C14.5698 90.0035 15.0534 89.8789 15.5841 89.8789C16.1585 89.8789 16.6723 90.0001 17.119 90.2425C17.5657 90.4849 17.9117 90.825 18.1602 91.2627C18.4054 91.7004 18.5297 92.1953 18.5297 92.7508V92.9091H13.0953C13.1088 93.3805 13.233 93.8013 13.4581 94.1683C13.6865 94.5387 13.9887 94.8248 14.3683 95.0336C14.7478 95.2423 15.1744 95.3467 15.6547 95.3467C16.1349 95.3467 16.5951 95.2322 16.9981 95.0033C17.4012 94.7743 17.7068 94.4713 17.9184 94.0909H18.3046C18.046 94.5858 17.6833 94.9797 17.2198 95.2693C16.7529 95.5622 16.2323 95.707 15.6547 95.707C15.077 95.707 14.6034 95.579 14.16 95.3265L14.1567 95.3332ZM18.177 92.5589C18.1535 92.1179 18.0292 91.7206 17.8076 91.3671C17.5825 91.0135 17.2802 90.7375 16.8974 90.5388C16.5145 90.3402 16.0778 90.2425 15.5841 90.2425C15.1441 90.2425 14.7411 90.3402 14.3716 90.5388C14.0022 90.7375 13.7066 91.0102 13.4849 91.3603C13.2599 91.7105 13.1356 92.1078 13.1054 92.5589H18.177Z" fill="#2C2460"/>
<path d="M22.634 90.0068H23.0203L24.8508 95.01L26.7954 90.0068H27.1011L29.0457 95.01L30.8897 90.0068H31.2658L29.2204 95.5925H28.9013L26.9566 90.5657L25.0019 95.5925H24.6828L22.6374 90.0068H22.634Z" fill="#2C2460"/>
<path d="M33.7949 95.3332C33.3449 95.0773 32.9889 94.7306 32.7302 94.2828C32.4716 93.8383 32.344 93.3434 32.344 92.7946C32.344 92.2458 32.4716 91.7509 32.7302 91.3065C32.9889 90.862 33.3415 90.5119 33.7949 90.2594C34.2484 90.0068 34.7522 89.8789 35.3131 89.8789C35.874 89.8789 36.3811 90.0068 36.8312 90.2594C37.2812 90.5119 37.6373 90.862 37.8959 91.3065C38.1545 91.7509 38.2821 92.2458 38.2821 92.7946C38.2821 93.3434 38.1545 93.8383 37.8959 94.2828C37.6373 94.7272 37.2846 95.0773 36.8312 95.3332C36.3778 95.5891 35.874 95.7137 35.3131 95.7137C34.7522 95.7137 34.245 95.5857 33.7949 95.3332ZM33.0426 94.0976C33.2676 94.4848 33.5766 94.7912 33.9763 95.0167C34.376 95.2423 34.8193 95.3534 35.3131 95.3534C35.8068 95.3534 36.2501 95.2423 36.6498 95.0167C37.0495 94.7912 37.3585 94.4882 37.5835 94.0976C37.8086 93.707 37.9194 93.2761 37.9194 92.798C37.9194 92.3199 37.8086 91.8856 37.5835 91.4984C37.3585 91.1112 37.0495 90.8048 36.6498 90.5792C36.2535 90.3536 35.8068 90.2425 35.3131 90.2425C34.8193 90.2425 34.376 90.3536 33.9763 90.5792C33.58 90.8048 33.2676 91.1112 33.0426 91.4984C32.8176 91.8856 32.7067 92.3199 32.7067 92.798C32.7067 93.2761 32.8176 93.7104 33.0426 94.0976Z" fill="#2C2460"/>
<path d="M40.1562 90.0068H40.519V91.2963C40.7171 90.8855 41.0026 90.569 41.3788 90.3435C41.755 90.1179 42.2017 90.0068 42.7256 90.0068H43.1925V90.3704H42.7021C42.0505 90.3704 41.5232 90.5791 41.1202 90.9966C40.7171 91.4141 40.519 91.9798 40.519 92.6935V95.5891H40.1562V90.0034V90.0068Z" fill="#2C2460"/>
<path d="M44.7039 87.2358H45.0666V95.5924H44.7039V87.2358Z" fill="#2C2460"/>
<path d="M48.3715 95.3331C47.9282 95.0772 47.5789 94.7304 47.3236 94.2826C47.0684 93.8349 46.9441 93.3433 46.9441 92.7945C46.9441 92.2457 47.0717 91.7508 47.3236 91.3063C47.5755 90.8619 47.9248 90.5117 48.3715 90.2592C48.8182 90.0067 49.3086 89.8788 49.8561 89.8788C50.4035 89.8788 50.9241 90.0135 51.3742 90.2828C51.8242 90.5522 52.1769 90.9158 52.4254 91.3703V87.2324H52.7882V95.589H52.4254V94.222C52.1735 94.6766 51.8242 95.0402 51.3742 95.3095C50.9241 95.5789 50.417 95.7136 49.8561 95.7136C49.2952 95.7136 48.8149 95.5856 48.3715 95.3331ZM47.6461 94.1042C47.8711 94.4948 48.1734 94.8011 48.563 95.0234C48.9492 95.2456 49.3858 95.3533 49.8695 95.3533C50.3531 95.3533 50.8032 95.2422 51.1928 95.0234C51.5824 94.8045 51.8914 94.4981 52.1131 94.1042C52.3381 93.7136 52.449 93.2793 52.449 92.7979C52.449 92.3164 52.3381 91.8854 52.1131 91.4915C51.8881 91.101 51.5824 90.7946 51.1928 90.5724C50.8032 90.3535 50.3599 90.2424 49.8695 90.2424C49.3791 90.2424 48.9492 90.3535 48.563 90.5724C48.1767 90.7946 47.8711 91.0976 47.6461 91.4915C47.421 91.8821 47.3102 92.3198 47.3102 92.7979C47.3102 93.276 47.421 93.7103 47.6461 94.1042Z" fill="#2C2460"/>
<path d="M62.3537 90.8249C62.0044 90.4377 61.5275 90.2424 60.9196 90.2424C60.4964 90.2424 60.1068 90.3434 59.7608 90.5488C59.4149 90.7542 59.1361 91.0336 58.938 91.3872C58.7364 91.7407 58.6357 92.1346 58.6357 92.5656V95.5856H58.2729V90H58.6357V91.2525C58.854 90.835 59.1697 90.5017 59.5728 90.2492C59.9792 90 60.4259 89.8721 60.9196 89.8721C61.6249 89.8721 62.1858 90.0977 62.609 90.5488C63.0288 91 63.2404 91.6296 63.2404 92.4343V95.5789H62.8777V92.5016C62.8777 91.7643 62.703 91.202 62.3537 90.8148V90.8249Z" fill="#2C2460"/>
<path d="M66.4514 95.3332C66.008 95.0773 65.6587 94.7306 65.4035 94.2828C65.1482 93.835 65.0239 93.34 65.0239 92.7845C65.0239 92.229 65.1482 91.7441 65.4001 91.3031C65.652 90.862 65.9946 90.5152 66.4278 90.2594C66.8645 90.0035 67.3481 89.8789 67.8788 89.8789C68.4531 89.8789 68.967 90.0001 69.4137 90.2425C69.8604 90.4849 70.2064 90.825 70.4549 91.2627C70.7001 91.7004 70.8243 92.1953 70.8243 92.7508V92.9091H65.39C65.4035 93.3805 65.5277 93.8013 65.7528 94.1683C65.9811 94.5387 66.2834 94.8248 66.663 95.0336C67.0425 95.2423 67.469 95.3467 67.9493 95.3467C68.4296 95.3467 68.8898 95.2322 69.2928 95.0033C69.6958 94.7743 70.0015 94.4713 70.2131 94.0909H70.5993C70.3407 94.5858 69.978 94.9797 69.5145 95.2693C69.0476 95.5622 68.527 95.707 67.9493 95.707C67.3716 95.707 66.8981 95.579 66.4547 95.3265L66.4514 95.3332ZM70.4717 92.5589C70.4482 92.1179 70.3239 91.7206 70.1022 91.3671C69.8772 91.0135 69.5749 90.7375 69.192 90.5388C68.8091 90.3402 68.3725 90.2425 67.8788 90.2425C67.4388 90.2425 67.0358 90.3402 66.6663 90.5388C66.2969 90.7375 66.0013 91.0102 65.7796 91.3603C65.5546 91.7105 65.4303 92.1078 65.4001 92.5589H70.4717Z" fill="#2C2460"/>
<path d="M73.7766 95.3332C73.3332 95.0773 72.9839 94.7306 72.7286 94.2828C72.4734 93.835 72.3491 93.34 72.3491 92.7845C72.3491 92.229 72.4734 91.7441 72.7253 91.3031C72.9772 90.862 73.3198 90.5152 73.753 90.2594C74.1897 90.0035 74.6733 89.8789 75.204 89.8789C75.7783 89.8789 76.2922 90.0001 76.7389 90.2425C77.1856 90.4849 77.5316 90.825 77.7801 91.2627C78.0253 91.7004 78.1495 92.1953 78.1495 92.7508V92.9091H72.7152C72.7286 93.3805 72.8529 93.8013 73.078 94.1683C73.3063 94.5387 73.6086 94.8248 73.9881 95.0336C74.3677 95.2423 74.7942 95.3467 75.2745 95.3467C75.7548 95.3467 76.215 95.2322 76.618 95.0033C77.021 94.7743 77.3267 94.4713 77.5383 94.0909H77.9245C77.6659 94.5858 77.3032 94.9797 76.8397 95.2693C76.3728 95.5622 75.8522 95.707 75.2745 95.707C74.6968 95.707 74.2233 95.579 73.7799 95.3265L73.7766 95.3332ZM77.7969 92.5589C77.7734 92.1179 77.6491 91.7206 77.4274 91.3671C77.2024 91.0135 76.9001 90.7375 76.5172 90.5388C76.1343 90.3402 75.6977 90.2425 75.204 90.2425C74.764 90.2425 74.361 90.3402 73.9915 90.5388C73.6221 90.7375 73.3265 91.0102 73.1048 91.3603C72.8798 91.7105 72.7555 92.1078 72.7253 92.5589H77.7969Z" fill="#2C2460"/>
<path d="M81.0986 95.3331C80.6552 95.0772 80.3059 94.7304 80.0507 94.2826C79.7954 93.8349 79.6711 93.3433 79.6711 92.7945C79.6711 92.2457 79.7988 91.7508 80.0507 91.3063C80.3026 90.8619 80.6519 90.5117 81.0986 90.2592C81.5453 90.0067 82.0356 89.8788 82.5831 89.8788C83.1306 89.8788 83.6512 90.0135 84.1012 90.2828C84.5513 90.5522 84.904 90.9158 85.1525 91.3703V87.2324H85.5152V95.589H85.1525V94.222C84.9006 94.6766 84.5513 95.0402 84.1012 95.3095C83.6512 95.5789 83.144 95.7136 82.5831 95.7136C82.0222 95.7136 81.5419 95.5856 81.0986 95.3331ZM80.3697 94.1042C80.5948 94.4948 80.8971 94.8011 81.2867 95.0234C81.6729 95.2456 82.1095 95.3533 82.5932 95.3533C83.0768 95.3533 83.5269 95.2422 83.9165 95.0234C84.3061 94.8045 84.6151 94.4981 84.8368 94.1042C85.0618 93.7136 85.1726 93.2793 85.1726 92.7979C85.1726 92.3164 85.0618 91.8854 84.8368 91.4915C84.6117 91.101 84.3061 90.7946 83.9165 90.5724C83.5269 90.3535 83.0836 90.2424 82.5932 90.2424C82.1028 90.2424 81.6729 90.3535 81.2867 90.5724C80.9004 90.7946 80.5948 91.0976 80.3697 91.4915C80.1447 91.8821 80.0339 92.3198 80.0339 92.7979C80.0339 93.276 80.1447 93.7103 80.3697 94.1042Z" fill="#2C2460"/>
<path d="M88.0408 95.2385C87.6076 94.9187 87.3691 94.4776 87.3254 93.9153H87.6882C87.7419 94.38 87.9502 94.7335 88.3129 94.9826C88.6756 95.2284 89.1727 95.353 89.8041 95.353C90.3583 95.353 90.7782 95.2419 91.067 95.0231C91.3559 94.8042 91.5003 94.5214 91.5003 94.1813C91.5003 93.8783 91.4163 93.6393 91.245 93.4642C91.0737 93.2891 90.8588 93.1612 90.6035 93.077C90.3449 92.9928 90.0057 92.9087 89.5791 92.8245C89.1391 92.7403 88.7831 92.6528 88.5111 92.5619C88.239 92.471 88.0073 92.3262 87.8225 92.1275C87.6378 91.9289 87.5438 91.6595 87.5438 91.3195C87.5438 90.9087 87.7251 90.5653 88.0845 90.2926C88.4439 90.0199 88.9544 89.8818 89.6127 89.8818C90.271 89.8818 90.7513 90.0233 91.1207 90.3094C91.4868 90.5956 91.6884 90.966 91.7186 91.4205H91.3558C91.3256 91.0703 91.1577 90.7875 90.8554 90.5721C90.5531 90.3566 90.1367 90.2488 89.606 90.2488C89.0451 90.2488 88.6219 90.3498 88.3364 90.5552C88.0509 90.7606 87.9098 91.0198 87.9098 91.3296C87.9098 91.5821 87.9871 91.7808 88.1416 91.9289C88.2961 92.077 88.4909 92.1881 88.7226 92.2656C88.9544 92.343 89.2735 92.4205 89.6832 92.5046C90.1602 92.6023 90.543 92.7033 90.8319 92.8009C91.1207 92.8986 91.3659 93.0602 91.5641 93.279C91.7622 93.4979 91.8664 93.8009 91.8664 94.178C91.8664 94.619 91.685 94.986 91.3256 95.2789C90.9662 95.5718 90.4557 95.7166 89.7974 95.7166C89.0619 95.7166 88.4775 95.5584 88.0476 95.2385H88.0408Z" fill="#2C2460"/>
<path d="M96.9211 90.0064H97.2839V91.1242C97.4888 90.7438 97.781 90.4407 98.1605 90.2185C98.54 89.9929 98.9565 89.8818 99.4099 89.8818C99.9104 89.8818 100.334 90.0064 100.679 90.2589C101.025 90.5114 101.261 90.8717 101.392 91.3431C101.573 90.902 101.865 90.5485 102.268 90.2825C102.671 90.0165 103.121 89.8818 103.622 89.8818C104.267 89.8818 104.774 90.0838 105.147 90.4912C105.519 90.8986 105.704 91.4744 105.704 92.2184V95.5921H105.341V92.2858C105.341 91.6023 105.19 91.0905 104.891 90.7539C104.592 90.4172 104.169 90.2455 103.622 90.2455C103.219 90.2455 102.859 90.3397 102.537 90.5249C102.214 90.7101 101.959 90.9693 101.774 91.2993C101.59 91.6292 101.496 92.003 101.496 92.4205V95.5887H101.133V92.2824C101.133 91.5989 100.982 91.0872 100.683 90.7505C100.384 90.4138 99.9607 90.2421 99.4133 90.2421C99.0102 90.2421 98.6509 90.3364 98.3284 90.5215C98.006 90.7067 97.7541 90.966 97.566 91.2959C97.3813 91.6259 97.2872 91.9996 97.2872 92.4171V95.5853H96.9245V89.9997L96.9211 90.0064Z" fill="#2C2460"/>
<path d="M108.935 95.3332C108.485 95.0773 108.129 94.7306 107.87 94.2828C107.612 93.8383 107.484 93.3434 107.484 92.7946C107.484 92.2458 107.612 91.7509 107.87 91.3065C108.129 90.862 108.482 90.5119 108.935 90.2594C109.389 90.0068 109.892 89.8789 110.453 89.8789C111.014 89.8789 111.521 90.0068 111.971 90.2594C112.421 90.5119 112.777 90.862 113.036 91.3065C113.295 91.7509 113.422 92.2458 113.422 92.7946C113.422 93.3434 113.295 93.8383 113.036 94.2828C112.777 94.7272 112.425 95.0773 111.971 95.3332C111.518 95.5891 111.014 95.7137 110.453 95.7137C109.892 95.7137 109.385 95.5857 108.935 95.3332ZM108.186 94.0976C108.411 94.4848 108.72 94.7912 109.12 95.0167C109.519 95.2423 109.963 95.3534 110.457 95.3534C110.95 95.3534 111.394 95.2423 111.793 95.0167C112.193 94.7912 112.502 94.4882 112.727 94.0976C112.952 93.707 113.063 93.2761 113.063 92.798C113.063 92.3199 112.952 91.8856 112.727 91.4984C112.502 91.1112 112.193 90.8048 111.793 90.5792C111.397 90.3536 110.95 90.2425 110.457 90.2425C109.963 90.2425 109.519 90.3536 109.12 90.5792C108.723 90.8048 108.411 91.1112 108.186 91.4984C107.961 91.8856 107.85 92.3199 107.85 92.798C107.85 93.2761 107.961 93.7104 108.186 94.0976Z" fill="#2C2460"/>
<path d="M115.3 90.0068H115.663V91.2963C115.861 90.8855 116.146 90.569 116.522 90.3435C116.899 90.1179 117.345 90.0068 117.869 90.0068H118.336V90.3704H117.846C117.194 90.3704 116.667 90.5791 116.264 90.9966C115.861 91.4141 115.663 91.9798 115.663 92.6935V95.5891H115.3V90.0034V90.0068Z" fill="#2C2460"/>
<path d="M120.603 95.3332C120.16 95.0773 119.811 94.7306 119.555 94.2828C119.3 93.835 119.176 93.34 119.176 92.7845C119.176 92.229 119.3 91.7441 119.552 91.3031C119.804 90.862 120.146 90.5152 120.58 90.2594C121.016 90.0035 121.5 89.8789 122.031 89.8789C122.605 89.8789 123.119 90.0001 123.566 90.2425C124.012 90.4849 124.358 90.825 124.607 91.2627C124.852 91.7004 124.976 92.1953 124.976 92.7508V92.9091H119.542C119.555 93.3805 119.68 93.8013 119.905 94.1683C120.133 94.5387 120.435 94.8248 120.815 95.0336C121.194 95.2423 121.621 95.3467 122.101 95.3467C122.581 95.3467 123.042 95.2322 123.445 95.0033C123.848 94.7743 124.153 94.4713 124.365 94.0909H124.751C124.493 94.5858 124.13 94.9797 123.666 95.2693C123.199 95.5622 122.679 95.707 122.101 95.707C121.524 95.707 121.05 95.579 120.607 95.3265L120.603 95.3332ZM124.624 92.5589C124.6 92.1179 124.476 91.7206 124.254 91.3671C124.029 91.0135 123.727 90.7375 123.344 90.5388C122.961 90.3402 122.524 90.2425 122.031 90.2425C121.591 90.2425 121.188 90.3402 120.818 90.5388C120.449 90.7375 120.153 91.0102 119.931 91.3603C119.706 91.7105 119.582 92.1078 119.552 92.5589H124.624Z" fill="#2C2460"/>
<path d="M131.173 95.3332C130.733 95.0773 130.387 94.7306 130.132 94.2828C129.876 93.835 129.752 93.3434 129.752 92.7946C129.752 92.2458 129.88 91.7509 130.132 91.3065C130.384 90.862 130.733 90.5119 131.173 90.2594C131.613 90.0035 132.1 89.8789 132.641 89.8789C133.322 89.8789 133.897 90.0472 134.364 90.3806C134.831 90.7139 135.17 91.1684 135.381 91.7374H135.005C134.8 91.2661 134.498 90.8991 134.102 90.6365C133.705 90.3738 133.215 90.2425 132.641 90.2425C132.164 90.2425 131.734 90.3536 131.351 90.5725C130.968 90.7947 130.666 91.0977 130.447 91.4849C130.226 91.8721 130.118 92.3098 130.118 92.7946C130.118 93.2794 130.229 93.7171 130.447 94.1043C130.666 94.4915 130.968 94.7945 131.351 95.0167C131.734 95.239 132.164 95.3467 132.641 95.3467C133.762 95.3467 134.558 94.8484 135.029 93.8518H135.405C135.17 94.4309 134.82 94.8821 134.354 95.2154C133.887 95.5453 133.316 95.7103 132.641 95.7103C132.103 95.7103 131.613 95.5824 131.173 95.3299V95.3332Z" fill="#2C2460"/>
<path d="M138.344 95.3332C137.894 95.0773 137.538 94.7306 137.279 94.2828C137.02 93.8383 136.893 93.3434 136.893 92.7946C136.893 92.2458 137.02 91.7509 137.279 91.3065C137.538 90.862 137.89 90.5119 138.344 90.2594C138.797 90.0068 139.301 89.8789 139.862 89.8789C140.423 89.8789 140.93 90.0068 141.38 90.2594C141.83 90.5119 142.186 90.862 142.445 91.3065C142.703 91.7509 142.831 92.2458 142.831 92.7946C142.831 93.3434 142.703 93.8383 142.445 94.2828C142.186 94.7272 141.833 95.0773 141.38 95.3332C140.927 95.5891 140.423 95.7137 139.862 95.7137C139.301 95.7137 138.794 95.5857 138.344 95.3332ZM137.591 94.0976C137.816 94.4848 138.125 94.7912 138.525 95.0167C138.925 95.2423 139.368 95.3534 139.862 95.3534C140.356 95.3534 140.799 95.2423 141.199 95.0167C141.598 94.7912 141.907 94.4882 142.132 94.0976C142.357 93.707 142.468 93.2761 142.468 92.798C142.468 92.3199 142.357 91.8856 142.132 91.4984C141.907 91.1112 141.598 90.8048 141.199 90.5792C140.802 90.3536 140.356 90.2425 139.862 90.2425C139.368 90.2425 138.925 90.3536 138.525 90.5792C138.129 90.8048 137.816 91.1112 137.591 91.4984C137.366 91.8856 137.256 92.3199 137.256 92.798C137.256 93.2761 137.366 93.7104 137.591 94.0976Z" fill="#2C2460"/>
<path d="M145.78 95.3331C145.336 95.0772 144.987 94.7304 144.732 94.2826C144.477 93.8349 144.352 93.3433 144.352 92.7945C144.352 92.2457 144.48 91.7508 144.732 91.3063C144.984 90.8619 145.333 90.5117 145.78 90.2592C146.226 90.0067 146.717 89.8788 147.264 89.8788C147.812 89.8788 148.332 90.0135 148.782 90.2828C149.232 90.5522 149.585 90.9158 149.834 91.3703V87.2324H150.196V95.589H149.834V94.222C149.582 94.6766 149.232 95.0402 148.782 95.3095C148.332 95.5789 147.825 95.7136 147.264 95.7136C146.703 95.7136 146.223 95.5856 145.78 95.3331ZM145.051 94.1042C145.276 94.4948 145.578 94.8011 145.968 95.0234C146.354 95.2456 146.791 95.3533 147.274 95.3533C147.758 95.3533 148.208 95.2422 148.598 95.0234C148.987 94.8045 149.296 94.4981 149.518 94.1042C149.743 93.7136 149.854 93.2793 149.854 92.7979C149.854 92.3164 149.743 91.8854 149.518 91.4915C149.293 91.101 148.987 90.7946 148.598 90.5724C148.208 90.3535 147.765 90.2424 147.274 90.2424C146.784 90.2424 146.354 90.3535 145.968 90.5724C145.582 90.7946 145.276 91.0976 145.051 91.4915C144.826 91.8821 144.715 92.3198 144.715 92.7979C144.715 93.276 144.826 93.7103 145.051 94.1042Z" fill="#2C2460"/>
<path d="M153.501 95.3332C153.058 95.0773 152.709 94.7306 152.454 94.2828C152.198 93.835 152.074 93.34 152.074 92.7845C152.074 92.229 152.198 91.7441 152.45 91.3031C152.702 90.862 153.045 90.5152 153.478 90.2594C153.915 90.0035 154.398 89.8789 154.929 89.8789C155.503 89.8789 156.017 90.0001 156.464 90.2425C156.91 90.4849 157.256 90.825 157.505 91.2627C157.75 91.7004 157.874 92.1953 157.874 92.7508V92.9091H152.44C152.454 93.3805 152.578 93.8013 152.803 94.1683C153.031 94.5387 153.333 94.8248 153.713 95.0336C154.093 95.2423 154.519 95.3467 154.999 95.3467C155.48 95.3467 155.94 95.2322 156.343 95.0033C156.746 94.7743 157.052 94.4713 157.263 94.0909H157.649C157.391 94.5858 157.028 94.9797 156.565 95.2693C156.098 95.5622 155.577 95.707 154.999 95.707C154.422 95.707 153.948 95.579 153.505 95.3265L153.501 95.3332ZM157.522 92.5589C157.498 92.1179 157.374 91.7206 157.152 91.3671C156.927 91.0135 156.625 90.7375 156.242 90.5388C155.859 90.3402 155.423 90.2425 154.929 90.2425C154.489 90.2425 154.086 90.3402 153.716 90.5388C153.347 90.7375 153.051 91.0102 152.83 91.3603C152.605 91.7105 152.48 92.1078 152.45 92.5589H157.522Z" fill="#2C2460"/>
<path d="M159.749 90.0068H160.111V91.2963C160.309 90.8855 160.595 90.569 160.971 90.3435C161.347 90.1179 161.794 90.0068 162.318 90.0068H162.785V90.3704H162.294C161.643 90.3704 161.116 90.5791 160.712 90.9966C160.309 91.4141 160.111 91.9798 160.111 92.6935V95.5891H159.749V90.0034V90.0068Z" fill="#2C2460"/>
<path d="M164.534 95.2385C164.101 94.9187 163.863 94.4776 163.819 93.9153H164.182C164.236 94.38 164.444 94.7335 164.807 94.9826C165.169 95.2284 165.666 95.353 166.298 95.353C166.852 95.353 167.272 95.2419 167.561 95.0231C167.85 94.8042 167.994 94.5214 167.994 94.1813C167.994 93.8783 167.91 93.6393 167.739 93.4642C167.567 93.2891 167.352 93.1612 167.097 93.077C166.839 92.9928 166.499 92.9087 166.073 92.8245C165.633 92.7403 165.277 92.6528 165.005 92.5619C164.733 92.471 164.501 92.3262 164.316 92.1275C164.131 91.9289 164.037 91.6595 164.037 91.3195C164.037 90.9087 164.219 90.5653 164.578 90.2926C164.938 90.0199 165.448 89.8818 166.106 89.8818C166.765 89.8818 167.245 90.0233 167.614 90.3094C167.98 90.5956 168.182 90.966 168.212 91.4205H167.849C167.819 91.0703 167.651 90.7875 167.349 90.5721C167.047 90.3566 166.63 90.2488 166.1 90.2488C165.539 90.2488 165.116 90.3498 164.83 90.5552C164.545 90.7606 164.403 91.0198 164.403 91.3296C164.403 91.5821 164.481 91.7808 164.635 91.9289C164.79 92.077 164.985 92.1881 165.216 92.2656C165.448 92.343 165.767 92.4205 166.177 92.5046C166.654 92.6023 167.037 92.7033 167.326 92.8009C167.614 92.8986 167.86 93.0602 168.058 93.279C168.256 93.4979 168.36 93.8009 168.36 94.178C168.36 94.619 168.179 94.986 167.819 95.2789C167.46 95.5718 166.949 95.7166 166.291 95.7166C165.556 95.7166 164.971 95.5584 164.541 95.2385H164.534Z" fill="#2C2460"/>
<path d="M2.8213 80.239C2.2604 80.239 1.97827 79.9663 1.97827 79.4208V44.971C1.97827 44.0384 2.24697 43.3751 2.78099 42.9778C3.31502 42.5805 4.05057 42.3853 4.98092 42.3853H8.93072C9.45803 42.3853 9.72001 42.6479 9.72001 43.1765V77.5219C9.72001 78.5084 9.46475 79.2087 8.95759 79.6195C8.44707 80.0336 7.81564 80.239 7.05994 80.239H2.8213ZM21.0186 80.239C20.6155 80.239 20.2864 80.1548 20.0311 79.9898C19.7759 79.8215 19.5173 79.5353 19.2553 79.1313L10.2238 65.9062L20.3636 54.8999C20.6088 54.6003 20.8473 54.378 21.0757 54.2265C21.3041 54.0784 21.6366 54.001 22.0766 54.001H28.5017C29.1499 54.001 29.4757 54.24 29.4757 54.7147C29.4757 54.91 29.3347 55.1625 29.0559 55.479L19.1545 66.0644L27.4504 78.1818C27.7662 78.6229 27.924 79 27.924 79.3164C27.924 79.5993 27.8132 79.8215 27.5949 79.9898C27.3766 80.1582 27.0642 80.239 26.6612 80.239H21.0253H21.0186Z" fill="#0054FF"/>
<path d="M32.5656 49.6039C31.8536 48.944 31.4976 47.9272 31.4976 46.5535C31.4976 45.1798 31.8569 44.2034 32.5757 43.4661C33.2944 42.7254 34.4196 42.3584 35.9478 42.3584C37.2644 42.3584 38.3257 42.7119 39.1352 43.4156C39.9413 44.1193 40.3477 45.1664 40.3477 46.5569C40.3477 47.9474 39.9513 49.0349 39.162 49.6578C38.3728 50.284 37.3013 50.5938 35.9478 50.5938C34.4028 50.5938 33.2743 50.2638 32.5656 49.6039ZM36.8983 80.2391C37.2678 80.2391 37.6171 80.1919 37.9529 80.0943C38.2854 79.9966 38.5844 79.8384 38.8497 79.6195C39.115 79.4007 39.3233 79.1179 39.4811 78.7745C39.639 78.431 39.7196 78.0135 39.7196 77.522V54.8192C39.7196 54.2738 39.4643 54.001 38.9572 54.001H34.9268C34.5573 54.001 34.208 54.0482 33.8721 54.1458C33.5396 54.2435 33.2407 54.4017 32.9754 54.6205C32.7134 54.8394 32.5018 55.1222 32.3439 55.4656C32.1861 55.809 32.1055 56.2265 32.1055 56.7181V79.4209C32.1055 79.9663 32.3607 80.2391 32.8679 80.2391H36.8983Z" fill="#0054FF"/>
<path d="M54.6725 80.2389C52.8655 80.2389 51.2399 80.0066 49.8024 79.5386C48.3649 79.0706 47.139 78.3232 46.128 77.2929C45.1171 76.2626 44.3446 74.9226 43.8105 73.2661C43.2765 71.613 43.0078 69.5962 43.0078 67.2192C43.0078 64.8422 43.3134 62.7615 43.9281 61.0814C44.5427 59.4014 45.3824 58.0378 46.4437 56.9907C47.5051 55.9436 48.7444 55.1827 50.1551 54.7079C51.5691 54.2332 53.0738 53.9942 54.6725 53.9942H62.6258V44.9676C62.6258 44.035 62.8945 43.3717 63.4285 42.9744C63.9626 42.5771 64.6981 42.3818 65.6285 42.3818H69.5783C70.1056 42.3818 70.3676 42.6445 70.3676 43.173V77.5185C70.3676 78.505 70.1123 79.2053 69.6051 79.6161C69.0946 80.0302 68.4632 80.2356 67.7075 80.2356H54.6725V80.2389ZM62.6258 60.3879H55.1998C54.1653 60.3879 53.329 60.5932 52.6976 61.0074C52.0661 61.4215 51.5791 61.9501 51.2366 62.5898C50.894 63.2329 50.6656 63.95 50.5514 64.7412C50.4372 65.5324 50.3801 66.3068 50.3801 67.0644C50.3801 67.8219 50.4338 68.63 50.538 69.4414C50.6421 70.2494 50.8637 70.9868 51.1963 71.6467C51.5288 72.3066 52.0158 72.8486 52.6573 73.2695C53.2988 73.6904 54.1452 73.9025 55.1998 73.9025H62.6258V60.3879Z" fill="#0054FF"/>
<path d="M74.922 80.239C74.3779 80.239 74.1058 79.9663 74.1058 79.4208V76.7543C74.1058 75.8755 74.3174 75.1752 74.7373 74.6567C75.1571 74.1382 75.859 73.879 76.8431 73.879H88.8773C89.5792 73.879 90.0763 73.7813 90.3652 73.5894C90.654 73.3975 90.7984 73.1248 90.7984 72.7713C90.7984 72.3504 90.6406 72.0205 90.3249 71.7814C90.0091 71.5424 89.4717 71.337 88.7194 71.1619L80.9777 69.4448C76.0975 68.4078 73.6558 65.9163 73.6558 61.9737C73.6558 60.866 73.8506 59.8257 74.2368 58.8594C74.6231 57.8931 75.1974 57.048 75.9598 56.3241C76.7222 55.6036 77.6862 55.0346 78.8449 54.6205C80.0037 54.2064 81.3471 54.001 82.8753 54.001H96.3839C97.1228 54.001 97.4889 54.2636 97.4889 54.7922V57.4857C97.4889 58.3644 97.2773 59.0647 96.8575 59.5832C96.4376 60.1017 95.7424 60.361 94.7785 60.361H82.8753C82.2607 60.361 81.8408 60.462 81.6125 60.664C81.3841 60.866 81.2699 61.1354 81.2699 61.4687C81.2699 61.5933 81.3035 61.7279 81.374 61.8794C81.4445 62.0276 81.5621 62.1791 81.73 62.3272C81.8979 62.4754 82.1129 62.6168 82.3749 62.7481C82.6369 62.8794 82.9626 62.9905 83.3489 63.0781L91.1444 64.7952C93.5492 65.3069 95.3561 66.189 96.5686 67.4483C97.7811 68.7075 98.3857 70.4279 98.3857 72.6097C98.3857 73.6837 98.2009 74.6837 97.8315 75.6062C97.462 76.5287 96.8776 77.3368 96.0816 78.0202C95.2823 78.7071 94.2511 79.2491 92.9883 79.6431C91.7254 80.0403 90.2039 80.2356 88.4339 80.2356H74.9253L74.922 80.239Z" fill="#0054FF"/>
</g>
<defs>
<linearGradient id="paint0_linear_43_38" x1="106.443" y1="75.0508" x2="120.436" y2="61.0922" gradientUnits="userSpaceOnUse">
<stop stop-color="#84FF5B"/>
<stop offset="0.45" stop-color="#06D46F"/>
<stop offset="0.51" stop-color="#06CB75"/>
<stop offset="0.61" stop-color="#06B585"/>
<stop offset="0.74" stop-color="#0691A0"/>
<stop offset="0.88" stop-color="#065FC6"/>
<stop offset="1" stop-color="#062FEA"/>
</linearGradient>
<linearGradient id="paint1_linear_43_38" x1="146.465" y1="73.6436" x2="132.472" y2="59.6884" gradientUnits="userSpaceOnUse">
<stop stop-color="#84FF5B"/>
<stop offset="0.45" stop-color="#06D46F"/>
<stop offset="0.51" stop-color="#06CB75"/>
<stop offset="0.61" stop-color="#06B585"/>
<stop offset="0.74" stop-color="#0691A0"/>
<stop offset="0.88" stop-color="#065FC6"/>
<stop offset="1" stop-color="#062FEA"/>
</linearGradient>
<linearGradient id="paint2_linear_43_38" x1="169.882" y1="58.2468" x2="155.889" y2="72.2054" gradientUnits="userSpaceOnUse">
<stop stop-color="#84FF5B"/>
<stop offset="0.45" stop-color="#06D46F"/>
<stop offset="0.51" stop-color="#06CB75"/>
<stop offset="0.61" stop-color="#06B585"/>
<stop offset="0.74" stop-color="#0691A0"/>
<stop offset="0.88" stop-color="#065FC6"/>
<stop offset="1" stop-color="#062FEA"/>
</linearGradient>
<clipPath id="clip0_43_38">
<rect width="172.777" height="95.7167" fill="white"/>
</clipPath>
</defs>
</svg>
