<svg width="126" height="73" viewBox="0 0 126 73" fill="none" xmlns="http://www.w3.org/2000/svg">
<mask id="mask0_43_153" style="mask-type:luminance" maskUnits="userSpaceOnUse" x="0" y="0" width="126" height="73">
<path d="M10.5221 71.9107H16.3468V72.699H9.31779V72.0749L15.0001 64.9036H9.40538V64.1153H16.2045V64.7393L10.5331 71.9107H10.5221ZM4.80694 64.1153L8.72656 72.688H7.77403L6.74485 70.3998H1.97124L0.942073 72.688H0.000488281L3.92011 64.1153H4.81789H4.80694ZM6.4164 69.6662L4.35805 65.0569L2.29971 69.6662H6.4164ZM19.0402 68.7246H23.4744V67.9582H19.0402V64.9036H24.0109V64.1153H18.1314V72.688H24.197V71.8997H19.0402V68.7137V68.7246ZM31.0946 69.7538L33.1858 72.699H32.1895L30.2297 69.9399C30.0107 69.9618 29.7918 69.9728 29.5399 69.9728H27.2407V72.688H26.332V64.1153H29.5399C31.7187 64.1153 33.0435 65.2211 33.0435 67.0604C33.0435 68.4071 32.3318 69.3487 31.0837 69.7538H31.0946ZM32.1457 67.0604C32.1457 65.6919 31.237 64.9036 29.518 64.9036H27.2407V69.2064H29.518C31.237 69.2064 32.1457 68.4071 32.1457 67.0604ZM77.9549 71.0786L72.4258 64.1153H71.6813V72.688H72.59V65.7247L78.1081 72.688H78.8526V64.1153H77.9549V71.0786ZM56.3203 64.9036H59.4516V70.1042C59.4516 71.3633 58.9152 71.9873 57.8531 71.9873C57.0977 71.9873 56.4736 71.6151 56.0028 70.9363L55.4663 71.5494C55.9919 72.3377 56.8787 72.7756 57.8422 72.7756C59.4845 72.7756 60.3385 71.8779 60.3385 70.0713V64.1262H56.3094V64.9145L56.3203 64.9036ZM66.3383 64.1153L70.2579 72.688H69.3054L68.2762 70.3998H63.5026L62.4735 72.688H61.5319L65.4515 64.1153H66.3493H66.3383ZM67.9478 69.6662L65.8894 65.0569L63.8311 69.6662H67.9478ZM53.2328 72.699H54.1415V64.1262H53.2328V72.699ZM42.3718 70.4108C42.3718 71.8669 41.2878 72.699 39.1528 72.699H35.2113V64.1262H38.912C40.828 64.1262 41.9229 64.9364 41.9229 66.3269C41.9229 67.3123 41.3973 67.9582 40.609 68.2757C41.7148 68.5166 42.3718 69.2392 42.3718 70.4108ZM36.1091 67.9801H38.8353C40.2039 67.9801 41.0032 67.4546 41.0032 66.4254C41.0032 65.3963 40.2039 64.8707 38.8353 64.8707H36.1091V67.9801ZM41.463 70.3341C41.463 69.2173 40.6419 68.7246 39.1309 68.7246H36.1091V71.9436H39.1309C40.6419 71.9436 41.463 71.4509 41.463 70.3232V70.3341ZM47.8899 64.1153L51.8095 72.688H50.857L49.8278 70.3998H45.0542L44.025 72.688H43.0834L47.003 64.1153H47.9008H47.8899ZM49.4884 69.6662L47.43 65.0569L45.3717 69.6662H49.4884ZM14.1571 15.9631H1.20484V0.186125H14.1571C17.5074 0.186125 19.9927 0.897785 21.5255 2.28826C23.0693 3.68969 23.8466 5.63855 23.8466 8.06915C23.8466 10.4997 23.0583 12.4486 21.5146 13.85C19.9708 15.2515 17.4964 15.9522 14.1571 15.9522V15.9631ZM14.0257 13.4449C16.522 13.4449 18.3504 12.9851 19.4562 12.0764C20.562 11.1676 21.0985 9.86473 21.0985 8.06915C21.0985 6.27357 20.562 4.97068 19.4672 4.06195C18.3614 3.15321 16.5329 2.69337 14.0257 2.69337H3.89821V13.434H14.0257V13.4449ZM29.4086 0.186125H26.7152V15.9631H29.4086V0.186125ZM35.496 14.2223C37.5981 15.5142 40.8608 16.1602 45.2074 16.1602C47.0468 16.1602 48.7767 16.0726 50.3424 15.8974C51.9299 15.7223 53.2547 15.4595 54.2839 15.0982L54.5028 15.0215V7.2261H51.8095V12.9413C50.211 13.3026 48.0103 13.4778 45.2512 13.4778C41.7039 13.4778 39.0543 13.0289 37.3901 12.142C35.7697 11.2771 34.9705 9.97422 34.9705 8.16769C34.9705 6.27357 35.7807 4.89404 37.4558 3.9634C39.1638 3.01087 41.8134 2.52913 45.3388 2.52913C46.7841 2.52913 48.1198 2.60577 49.2913 2.75906C50.4519 2.91234 51.9518 3.18605 53.7474 3.59115L54.1306 3.67875V1.06202L53.8788 1.00727C52.1927 0.635019 50.6927 0.372251 49.4227 0.21897C48.1526 0.0766372 46.7403 0 45.2184 0C40.8937 0 37.631 0.65692 35.5069 1.95981C33.3391 3.29554 32.2443 5.36484 32.2443 8.102C32.2443 10.8392 33.3391 12.8866 35.4851 14.2004L35.496 14.2223ZM60.3604 0.186125H57.667V15.9631H60.3604V0.186125ZM71.8017 15.9631H74.4951V2.70432H83.9875V0.186125H62.2764V2.70432H71.7908V15.9631H71.8017ZM80.484 15.9631L92.0239 0.186125H94.6844L106.18 15.9631H102.907L100.356 12.4158H86.3634L83.8124 15.9631H80.4949H80.484ZM88.159 9.91947H98.5602L93.3596 2.70432L88.159 9.91947ZM110.593 13.4449V0.186125H107.899V15.9631H125.45V13.4449H110.593ZM14.1571 38.8786H1.20484V23.1016H14.1571C17.5074 23.1016 19.9927 23.8133 21.5255 25.2038C23.0693 26.6052 23.8466 28.5541 23.8466 30.9847C23.8466 33.4153 23.0583 35.3641 21.5146 36.7655C19.9708 38.167 17.4964 38.8677 14.1571 38.8677V38.8786ZM14.0257 36.3605C16.522 36.3605 18.3504 35.9006 19.4562 34.9919C20.562 34.0831 21.0985 32.7802 21.0985 30.9847C21.0985 29.1891 20.562 27.8862 19.4672 26.9775C18.3614 26.0687 16.5329 25.6089 14.0257 25.6089H3.89821V36.3495H14.0257V36.3605ZM46.8169 25.6089V23.0907H26.8356V38.8677H46.9811V36.3495H29.529V32.1781H46.1381V29.638H29.529V25.5979H46.8169V25.6089ZM67.7179 37.1707C68.4186 36.4699 68.7689 35.5284 68.7689 34.3787C68.7689 33.043 68.2325 32.0248 67.1814 31.346C66.1851 30.7 64.9917 30.273 63.6121 30.065C62.2764 29.857 60.4808 29.6927 58.2911 29.5613C56.6269 29.4628 55.313 29.3533 54.3605 29.2438C53.4408 29.1343 52.6744 28.9263 52.0722 28.6198C51.5358 28.346 51.2949 27.9847 51.2949 27.4592C51.2949 26.9994 51.492 26.649 51.8861 26.3643C52.3241 26.0578 53.0686 25.8279 54.0868 25.6855C55.1379 25.5322 56.594 25.4556 58.4006 25.4556C60.2071 25.4556 61.937 25.5322 63.3056 25.6965C64.6741 25.8498 66.0975 26.1235 67.5317 26.4848L67.9259 26.5833V24.0104L67.696 23.9447C65.2106 23.233 62.1012 22.8717 58.4553 22.8717C56.1232 22.8717 54.2291 23.025 52.8277 23.3206C51.3825 23.6272 50.3095 24.1308 49.6307 24.8096C48.93 25.5103 48.5796 26.4519 48.5796 27.6234C48.5796 28.9044 49.1052 29.8898 50.1562 30.5577C51.1416 31.1817 52.335 31.6087 53.7036 31.8168C55.0393 32.0248 56.824 32.2 59.0027 32.3423C60.6888 32.4408 62.0136 32.5503 62.9662 32.6708C63.8749 32.7912 64.6522 32.9992 65.2544 33.3058C65.7909 33.5795 66.0427 33.9408 66.0427 34.4335C66.0427 35.1342 65.55 35.6378 64.5209 35.9663C63.3932 36.3276 61.51 36.5137 58.9151 36.5137C56.9334 36.5137 55.1379 36.4042 53.5613 36.2072C51.9956 35.9991 50.43 35.6707 48.9081 35.2108L48.503 35.0904V37.7619L48.7329 37.8276C50.1891 38.2655 51.7219 38.583 53.3094 38.7801C54.8861 38.9772 56.7145 39.0757 58.729 39.0757C61.1049 39.0757 63.0318 38.9224 64.4552 38.6378C65.9223 38.3422 67.0172 37.8385 67.696 37.1597L67.7179 37.1707ZM71.8017 38.8786H74.4951V23.1016H71.8017V38.8786ZM82.6628 26.8899C84.3708 25.9373 87.0203 25.4556 90.5458 25.4556C91.991 25.4556 93.3268 25.5322 94.4983 25.6855C95.6588 25.8388 97.1588 26.1125 98.9543 26.5176L99.3376 26.6052V23.9885L99.0857 23.9337C97.3997 23.5615 95.8997 23.2987 94.6296 23.1454C93.3596 23.0031 91.9472 22.9265 90.4254 22.9265C86.1006 22.9265 82.8379 23.5834 80.7139 24.8863C78.5461 26.222 77.4512 28.2913 77.4512 31.0285C77.4512 33.7656 78.5461 35.813 80.692 37.1269C82.7942 38.4188 86.0568 39.0648 90.4035 39.0648C92.2428 39.0648 93.9727 38.9772 95.5384 38.802C97.1259 38.6268 98.4507 38.3641 99.4799 38.0028L99.6989 37.9261V30.1307H97.0055V35.8459C95.407 36.2072 93.2063 36.3823 90.4473 36.3823C86.8999 36.3823 84.2503 35.9334 82.5861 35.0466C80.9657 34.1817 80.1665 32.8788 80.1665 31.0723C80.1665 29.1781 80.9767 27.7986 82.6518 26.868L82.6628 26.8899ZM122.374 35.5065L105.403 23.1564L105.316 23.0907H103.016V38.8677H105.71V26.4081L122.658 38.802L122.746 38.8677H125.067V23.0907H122.374V35.5065ZM17.2008 51.6229C16.3468 51.0754 15.3176 50.7032 14.1461 50.528C13.0075 50.3528 11.4747 50.2105 9.60245 50.101C8.19008 50.0134 7.06236 49.9258 6.25216 49.8273C5.47481 49.7287 4.82884 49.5536 4.31426 49.2908C3.87631 49.0718 3.66829 48.7653 3.66829 48.3383C3.66829 47.9551 3.82157 47.6704 4.15003 47.4405C4.52228 47.1777 5.14635 46.9916 6.0113 46.8712C6.90909 46.7398 8.14628 46.685 9.69004 46.685C11.2338 46.685 12.7009 46.7507 13.8724 46.8821C15.0439 47.0135 16.2592 47.2434 17.4745 47.5609L17.8687 47.6595V45.3712L17.6388 45.3055C15.5147 44.6924 12.8542 44.3858 9.74479 44.3858C7.75213 44.3858 6.13173 44.5172 4.93833 44.769C3.70113 45.0318 2.78144 45.4697 2.19022 46.05C1.58804 46.6522 1.28148 47.4733 1.28148 48.4806C1.28148 49.5864 1.74133 50.4404 2.65006 51.0207C3.49311 51.5572 4.52228 51.9185 5.69379 52.1046C6.83244 52.2798 8.35431 52.4331 10.2156 52.5535C11.6498 52.6411 12.7885 52.7287 13.5878 52.8382C14.3651 52.9367 15.0111 53.1228 15.5257 53.3746C15.9636 53.5936 16.1716 53.8892 16.1716 54.3053C16.1716 54.5133 16.1716 55.1702 14.9016 55.5753C13.9491 55.8819 12.3396 56.0352 10.1389 56.0352C8.45285 56.0352 6.92003 55.9476 5.57335 55.7724C4.23761 55.5972 2.90188 55.3126 1.60994 54.9294L1.20484 54.8089V57.1848L1.43476 57.2505C2.67196 57.6227 3.9858 57.8964 5.34343 58.0607C6.69011 58.2249 8.25577 58.3125 9.97471 58.3125C12.0002 58.3125 13.6535 58.1811 14.8688 57.9402C16.1278 57.6775 17.0694 57.2505 17.6607 56.6592C18.2628 56.0571 18.5694 55.2469 18.5694 54.2505C18.5694 53.1009 18.1095 52.2141 17.2008 51.6229ZM38.3098 57.3271V55.0169L37.9266 55.1045C36.35 55.4658 35.0471 55.7177 34.0508 55.849C33.0654 55.9804 31.8939 56.0461 30.5691 56.0461C27.5582 56.0461 25.3138 55.652 23.8904 54.8527C22.5109 54.0863 21.843 52.9477 21.843 51.371C21.843 49.7944 22.5328 48.6667 23.9452 47.8894C25.4014 47.0901 27.6568 46.685 30.6457 46.685C31.8829 46.685 33.0107 46.7507 34.007 46.8712C34.9924 46.9916 36.2733 47.2325 37.8062 47.5719L38.1894 47.6595V45.3383L37.9375 45.2836C36.5033 44.9661 35.2223 44.7362 34.1274 44.6157C33.0435 44.4953 31.8282 44.4296 30.5363 44.4296C26.8356 44.4296 24.0437 44.988 22.2372 46.1047C20.3759 47.2434 19.4234 49.0061 19.4234 51.3601C19.4234 53.7141 20.365 55.5096 22.2153 56.6373C24.0109 57.7432 26.8137 58.3015 30.5144 58.3015C31.8282 58.3015 33.0326 58.2358 34.0946 58.1045C35.1566 57.9731 36.4814 57.7322 38.0361 57.3928L38.2879 57.3381L38.3098 57.3271ZM60.1414 58.1264V44.5829H57.7436V50.1557H43.16V44.5829H40.7732V58.1264H43.16V52.4002H57.7436V58.1264H60.1414ZM83.4839 47.8894C84.1956 48.9295 84.5569 50.101 84.5569 51.3492C84.5569 52.5973 84.1956 53.7798 83.4839 54.8199C82.7723 55.86 81.5898 56.714 79.9475 57.349C78.3381 57.984 76.1921 58.3015 73.5644 58.3015C70.9368 58.3015 68.7908 57.984 67.1704 57.349C65.5281 56.703 64.3457 55.849 63.634 54.8199C62.9333 53.7798 62.572 52.6192 62.572 51.3492C62.572 50.0791 62.9333 48.9295 63.634 47.8894C64.3347 46.8383 65.5281 45.9843 67.1704 45.3493C68.7908 44.7143 70.9368 44.3968 73.5644 44.3968C76.1921 44.3968 78.3162 44.7143 79.9366 45.3493C81.5788 45.9953 82.7723 46.8493 83.4839 47.8894ZM82.1591 51.3601C82.1591 50.5389 81.8964 49.7725 81.3599 49.0828C80.8234 48.3821 79.9256 47.8018 78.6665 47.3529C77.3855 46.8931 75.6666 46.6631 73.5754 46.6631C71.4842 46.6631 69.7872 46.8931 68.4952 47.3529C67.2361 47.8018 66.3164 48.3821 65.7909 49.0828C65.2654 49.7725 65.0026 50.5389 65.0026 51.3601C65.0026 52.1812 65.2654 52.9586 65.8018 53.6484C66.3383 54.3491 67.2471 54.9294 68.5062 55.3782C69.7981 55.8271 71.5061 56.0571 73.5863 56.0571C75.6666 56.0571 77.3965 55.8271 78.6775 55.3782C79.9366 54.9294 80.8453 54.3491 81.3708 53.6484C81.8964 52.9477 82.1701 52.1812 82.1701 51.3601H82.1591ZM106.487 47.8894C107.199 48.9404 107.56 50.101 107.56 51.3492C107.56 52.5973 107.199 53.7798 106.487 54.8199C105.775 55.86 104.593 56.714 102.951 57.349C101.341 57.984 99.1952 58.3015 96.5676 58.3015C93.9399 58.3015 91.7939 57.984 90.1735 57.349C88.5312 56.703 87.3488 55.849 86.6371 54.8199C85.9364 53.7798 85.5751 52.6192 85.5751 51.3492C85.5751 50.0791 85.9364 48.9295 86.6371 47.8894C87.3378 46.8383 88.5312 45.9843 90.1735 45.3493C91.7939 44.7143 93.9399 44.3968 96.5676 44.3968C99.1952 44.3968 101.319 44.7143 102.94 45.3493C104.582 45.9953 105.775 46.8493 106.487 47.8894ZM105.151 51.3601C105.151 50.5389 104.889 49.7725 104.352 49.0828C103.816 48.3821 102.918 47.8018 101.659 47.3529C100.378 46.8931 98.6587 46.6631 96.5676 46.6631C94.4764 46.6631 92.7793 46.8931 91.4874 47.3529C90.2283 47.8018 89.3086 48.3821 88.7831 49.0828C88.2575 49.7725 87.9948 50.5389 87.9948 51.3601C87.9948 52.1812 88.2575 52.9586 88.7831 53.6484C89.3195 54.3491 90.2283 54.9294 91.4874 55.3782C92.7793 55.8271 94.4873 56.0571 96.5676 56.0571C98.6478 56.0571 100.378 55.8271 101.659 55.3782C102.918 54.9294 103.827 54.3491 104.352 53.6484C104.878 52.9477 105.151 52.1812 105.151 51.3601ZM112.388 44.5829H110.002V58.1264H125.056V55.8928H112.377V44.5829H112.388Z" fill="white"/>
</mask>
<g mask="url(#mask0_43_153)">
<path d="M173.855 -74.7354H-48.4023V147.522H173.855V-74.7354Z" fill="url(#paint0_linear_43_153)"/>
</g>
<defs>
<linearGradient id="paint0_linear_43_153" x1="-48.4023" y1="147.522" x2="173.855" y2="-74.7354" gradientUnits="userSpaceOnUse">
<stop stop-color="#FFD113"/>
<stop offset="0.33" stop-color="#F222BC"/>
<stop offset="0.66" stop-color="#8B1BE2"/>
<stop offset="1" stop-color="#22BCE0"/>
</linearGradient>
</defs>
</svg>
