<svg width="155" height="69" viewBox="0 0 155 69" fill="none" xmlns="http://www.w3.org/2000/svg">
<g clip-path="url(#clip0_43_119)">
<path d="M15.6021 7.69924H5.38837V14.4654H14.4405V18.7548H5.38837V25.9069H15.5932V30.313H0V3.28418H15.6021V7.69027V7.69924Z" fill="#1B1464"/>
<path d="M20.4902 1.70508H25.8786V30.3312H20.4902V1.70508Z" fill="#1B1464"/>
<path d="M61.0592 18.4859C61.0592 15.0849 59.1737 13.2991 56.3231 13.2991C53.4726 13.2991 51.5513 15.0759 51.5513 18.4859V30.3222H46.154V18.4859C46.154 15.0849 44.2685 13.2991 41.418 13.2991C38.5674 13.2991 36.6015 15.0759 36.6015 18.4859V30.3222H31.2131V8.893H36.6015V11.4864C37.9508 9.7096 40.2206 8.58789 42.8835 8.58789C46.1987 8.58789 48.9331 10.0147 50.3986 12.6889C51.7837 10.248 54.5985 8.58789 57.7171 8.58789C62.8374 8.58789 66.4654 11.8364 66.4654 17.759V30.3312H61.077V18.4949L61.0592 18.4859Z" fill="#1B1464"/>
<path d="M70.9961 3.16772C70.9961 1.39092 72.3812 0 74.3113 0C76.2415 0 77.6266 1.39092 77.6266 3.16772C77.6266 4.94451 76.2058 6.33544 74.3113 6.33544C72.4169 6.33544 70.9961 4.94451 70.9961 3.16772ZM71.5769 8.89294H76.9653V30.3221H71.5769V8.89294Z" fill="#1B1464"/>
<path d="M94.7211 8.55201C100.19 8.55201 104.47 12.8414 104.47 19.5358C104.47 26.2302 100.19 30.6722 94.7211 30.6722C91.3701 30.6722 88.9842 29.1287 87.6706 27.2712V30.3312H82.2822V1.70508H87.6706V12.0338C88.9842 10.0596 91.4862 8.55201 94.7211 8.55201ZM93.3002 13.3081C90.4139 13.3081 87.6795 15.5515 87.6795 19.6166C87.6795 23.6817 90.4139 25.9251 93.3002 25.9251C96.1866 25.9251 98.9656 23.6009 98.9656 19.5448C98.9656 15.4887 96.2312 13.3171 93.3002 13.3171V13.3081Z" fill="#1B1464"/>
<path d="M116.757 8.55176C120.188 8.55176 122.539 10.176 123.807 11.9528V8.89276H129.241V30.322H123.807V27.1901C122.539 29.0477 120.108 30.6719 116.721 30.6719C111.324 30.6719 107.017 26.221 107.017 19.5356C107.017 12.8502 111.333 8.55176 116.766 8.55176H116.757ZM118.142 13.3078C115.256 13.3078 112.521 15.4705 112.521 19.5356C112.521 23.6007 115.256 25.9159 118.142 25.9159C121.028 25.9159 123.807 23.6725 123.807 19.6074C123.807 15.5423 121.109 13.2988 118.142 13.2988V13.3078Z" fill="#1B1464"/>
<path d="M149.194 8.89276H154.931L141.715 40.4533H135.978L140.598 29.7746L132.046 8.88379H138.096L143.601 23.8519L149.186 8.88379L149.194 8.89276Z" fill="#1B1464"/>
<path d="M2.50204 68.1374C1.34037 68.1374 0.527201 67.5541 0.446777 66.6118H1.11697C1.17059 67.1772 1.66207 67.581 2.49311 67.581C3.22586 67.581 3.63691 67.1862 3.63691 66.7016C3.63691 65.4363 0.571881 66.1721 0.571881 64.2518C0.571881 63.489 1.29569 62.8608 2.368 62.8608C3.44032 62.8608 4.182 63.4441 4.23562 64.4312H3.58329C3.54755 63.8569 3.12756 63.4262 2.35013 63.4262C1.671 63.4262 1.23314 63.7941 1.23314 64.2428C1.23314 65.6337 4.25349 64.8889 4.2803 66.7016C4.2803 67.5272 3.55648 68.1374 2.50204 68.1374Z" fill="#1B1464"/>
<path d="M5.36157 61.4697C5.36157 61.1916 5.57604 60.9941 5.83518 60.9941C6.09432 60.9941 6.30878 61.1916 6.30878 61.4697C6.30878 61.7479 6.09432 61.9543 5.83518 61.9543C5.57604 61.9543 5.36157 61.7479 5.36157 61.4697ZM5.51348 62.9325H6.16581V68.0654H5.51348V62.9325Z" fill="#1B1464"/>
<path d="M11.4825 65.1309C11.4825 63.9913 10.866 63.408 9.92769 63.408C8.98941 63.408 8.31028 64.0092 8.31028 65.2566V68.0564H7.65796V62.9234H8.31028V63.7939C8.64091 63.1567 9.29324 62.8247 10.0528 62.8247C11.2145 62.8247 12.1259 63.5426 12.1259 65.0412V68.0474H11.4825V65.113V65.1309Z" fill="#1B1464"/>
<path d="M15.745 62.8516C17.0229 62.8516 17.8628 63.5336 18.0952 64.6014H17.3892C17.2195 63.8656 16.6029 63.4169 15.745 63.4169C14.7442 63.4169 13.931 64.0989 13.931 65.4898C13.931 66.8808 14.7442 67.5717 15.745 67.5717C16.6029 67.5717 17.2105 67.132 17.3892 66.3782H18.0952C17.8628 67.4012 17.0318 68.1281 15.745 68.1281C14.3063 68.1281 13.2698 67.1141 13.2698 65.4898C13.2698 63.8656 14.3063 62.8516 15.745 62.8516Z" fill="#1B1464"/>
<path d="M21.5089 68.1374C20.0613 68.1374 19.0068 67.1233 19.0068 65.4991C19.0068 63.8749 20.0434 62.8608 21.5089 62.8608C22.9744 62.8608 23.9216 63.9287 23.9216 65.2389C23.9216 65.4453 23.9216 65.5799 23.9037 65.7593H19.6681C19.7217 66.9618 20.5528 67.59 21.5089 67.59C22.3757 67.59 22.9655 67.1323 23.1531 66.4413H23.8412C23.6088 67.4105 22.7867 68.1464 21.5 68.1464L21.5089 68.1374ZM19.6681 65.2119H23.2603C23.2872 64.0184 22.4293 63.4172 21.4821 63.4172C20.5349 63.4172 19.7396 64.0184 19.6681 65.2119Z" fill="#1B1464"/>
<path d="M27.4065 67.5449C29.3367 66.1001 31.0077 64.6464 31.0077 63.2016C31.0077 62.4209 30.6681 61.7748 29.6315 61.7748C28.595 61.7748 28.1571 62.4658 28.0946 63.408H27.4601C27.5316 61.9902 28.3984 61.2095 29.6315 61.2095C30.8022 61.2095 31.66 61.8735 31.66 63.1747C31.66 64.8977 29.7209 66.477 28.4073 67.4552H31.8655V68.0115H27.4065V67.5449Z" fill="#1B1464"/>
<path d="M35.154 61.2275C36.9859 61.2275 37.4237 62.6992 37.4237 64.6286C37.4237 66.5579 36.9859 68.0745 35.154 68.0745C33.3221 68.0745 32.8843 66.5938 32.8843 64.6286C32.8843 62.6633 33.3132 61.2275 35.154 61.2275ZM35.154 61.8198C33.7332 61.8198 33.5277 63.103 33.5277 64.6286C33.5277 66.1541 33.7332 67.4732 35.154 67.4732C36.5748 67.4732 36.7803 66.2079 36.7803 64.6286C36.7803 63.0492 36.5748 61.8198 35.154 61.8198Z" fill="#1B1464"/>
<path d="M39.2467 61.9184H38.3174V61.3262H39.908V68.0654H39.2467V61.9184Z" fill="#1B1464"/>
<path d="M43.5358 61.2007C44.8316 61.2007 45.5196 61.9635 45.5196 62.9236C45.5196 63.6864 45.0728 64.3415 44.1882 64.4851V64.5299C45.0371 64.7004 45.6358 65.2837 45.6358 66.2798C45.6358 67.2759 44.9567 68.1104 43.5448 68.1104C42.2848 68.1104 41.3555 67.4284 41.2214 66.1452H41.8559C41.9631 66.9439 42.544 67.5541 43.5358 67.5541C44.5277 67.5541 45.0013 66.9618 45.0013 66.217C45.0013 65.2209 44.2507 64.7902 42.955 64.7902H42.7495V64.2338H42.9639C44.2418 64.2338 44.8762 63.812 44.8762 62.9865C44.8762 62.2686 44.4026 61.775 43.509 61.775C42.678 61.775 42.0703 62.2237 41.9631 63.0403H41.3287C41.418 61.8917 42.2759 61.2007 43.5269 61.2007H43.5358Z" fill="#1B1464"/>
<path d="M5.16499 42.2661C6.97005 42.2661 8.25682 43.2442 8.77511 44.4019V42.4007H9.94572V51.8052C9.94572 54.3716 8.18534 56.0766 5.68327 56.0766C3.32418 56.0766 1.68891 54.8652 1.3136 52.9538H2.46633C2.85058 54.2011 4.00332 55.0536 5.67434 55.0536C7.34536 55.0536 8.76617 53.896 8.76617 51.8141V49.5438C8.23002 50.7193 6.96111 51.7154 5.15605 51.7154C2.64505 51.7154 0.786377 49.8489 0.786377 46.9773C0.786377 44.1057 2.64505 42.2751 5.15605 42.2751L5.16499 42.2661ZM5.37945 43.2891C3.45822 43.2891 1.98379 44.6352 1.98379 46.9683C1.98379 49.3015 3.45822 50.6834 5.37945 50.6834C7.30068 50.6834 8.77511 49.2746 8.77511 46.9863C8.77511 44.698 7.256 43.2891 5.37945 43.2891Z" fill="#1B1464"/>
<path d="M13.7971 51.5719H12.6265V42.4008H13.7971V44.034C14.2975 42.9123 15.3519 42.2393 16.9247 42.2393V43.4687H16.603C15.0838 43.4687 13.7881 44.1596 13.7881 46.4569V51.5809L13.7971 51.5719Z" fill="#1B1464"/>
<path d="M22.5096 42.2661C24.3504 42.2661 25.6014 43.2532 26.1197 44.4198V42.4007H27.2903V51.5718H26.1197V49.5348C25.5835 50.7104 24.3146 51.7065 22.4917 51.7065C19.9986 51.7065 18.1399 49.8399 18.1399 46.9683C18.1399 44.0968 19.9986 42.2661 22.5096 42.2661ZM22.724 43.2891C20.8028 43.2891 19.3284 44.6352 19.3284 46.9683C19.3284 49.3015 20.8028 50.6834 22.724 50.6834C24.6453 50.6834 26.1197 49.2746 26.1197 46.9863C26.1197 44.698 24.6006 43.2891 22.724 43.2891Z" fill="#1B1464"/>
<path d="M34.7519 42.2661C37.245 42.2661 39.1037 44.0968 39.1037 46.9683C39.1037 49.8399 37.245 51.7065 34.7519 51.7065C32.929 51.7065 31.6601 50.7014 31.1239 49.5528V55.9061H29.9712V42.4007H31.1239V44.4198C31.6601 43.2622 32.929 42.2661 34.7519 42.2661ZM34.5196 43.2891C32.6609 43.2891 31.1239 44.698 31.1239 46.9863C31.1239 49.2746 32.6609 50.6834 34.5196 50.6834C36.3783 50.6834 37.9152 49.2925 37.9152 46.9683C37.9152 44.6441 36.4408 43.2891 34.5196 43.2891Z" fill="#1B1464"/>
<path d="M41.2573 39.1343H42.4279V43.9532C43.0177 42.8314 44.2151 42.2212 45.6091 42.2212C47.6376 42.2212 49.255 43.4955 49.255 46.1876V51.5629H48.1023V46.3222C48.1023 44.2852 46.9942 43.2442 45.3232 43.2442C43.6522 43.2442 42.4279 44.3211 42.4279 46.5555V51.5629H41.2573V39.1343Z" fill="#1B1464"/>
<path d="M51.5784 39.7892C51.5784 39.2867 51.9626 38.9277 52.4362 38.9277C52.9098 38.9277 53.2941 39.2777 53.2941 39.7892C53.2941 40.3007 52.9098 40.6597 52.4362 40.6597C51.9626 40.6597 51.5784 40.2917 51.5784 39.7892ZM51.8464 42.3916H53.0171V51.5627H51.8464V42.3916Z" fill="#1B1464"/>
<path d="M59.567 42.2661C61.8546 42.2661 63.3469 43.4955 63.7669 45.389H62.5159C62.212 44.0788 61.1129 43.2712 59.5759 43.2712C57.7887 43.2712 56.3322 44.5006 56.3322 46.9863C56.3322 49.472 57.7887 50.7193 59.5759 50.7193C61.1129 50.7193 62.2031 49.9297 62.5159 48.5836H63.7669C63.3469 50.4142 61.8635 51.7065 59.567 51.7065C56.9934 51.7065 55.1348 49.8938 55.1348 46.9863C55.1348 44.0788 56.9934 42.2661 59.567 42.2661Z" fill="#1B1464"/>
<path d="M73.6501 51.7065C71.577 51.7065 70.1204 50.6655 69.9685 48.9874H71.1749C71.2732 49.9925 72.1489 50.7193 73.6322 50.7193C74.9369 50.7193 75.6696 50.0104 75.6696 49.14C75.6696 46.8696 70.183 48.1977 70.183 44.7518C70.183 43.3878 71.4697 42.2661 73.391 42.2661C75.3122 42.2661 76.6347 43.3071 76.7419 45.0749H75.5713C75.4998 44.0519 74.7492 43.2801 73.3642 43.2801C72.1399 43.2801 71.3714 43.9352 71.3714 44.7429C71.3714 47.2286 76.7777 45.9005 76.8224 49.1489C76.8224 50.6296 75.5356 51.7154 73.6412 51.7154L73.6501 51.7065Z" fill="#1B1464"/>
<path d="M79.369 43.3879H78.1001V42.4008H79.369V40.1035H80.5575V42.4008H83.0685V43.3879H80.5575V49.0862C80.5575 50.2079 80.9417 50.5669 81.9962 50.5669H83.0685V51.5719H81.8174C80.2268 51.5719 79.3779 50.9168 79.3779 49.0862V43.3879H79.369Z" fill="#1B1464"/>
<path d="M92.9071 51.5715H91.7365V49.9562C91.1825 51.1139 89.9761 51.7241 88.6268 51.7241C86.5536 51.7241 84.9094 50.4498 84.9094 47.7577V42.4004H86.0622V47.6231C86.0622 49.6601 87.1702 50.7011 88.8412 50.7011C90.5123 50.7011 91.7365 49.6242 91.7365 47.3898V42.4004H92.9071V51.5715Z" fill="#1B1464"/>
<path d="M99.4213 42.2659C101.057 42.2659 102.433 43.1723 103.023 44.3837V39.1431H104.193V51.5716H103.023V49.5256C102.486 50.7371 101.217 51.7063 99.4124 51.7063C96.9014 51.7063 95.0427 49.8397 95.0427 46.9681C95.0427 44.0966 96.9014 42.2659 99.4303 42.2659H99.4213ZM99.6269 43.2889C97.7056 43.2889 96.2312 44.635 96.2312 46.9681C96.2312 49.3013 97.7056 50.6832 99.6269 50.6832C101.548 50.6832 103.023 49.2744 103.023 46.9861C103.023 44.6978 101.503 43.2889 99.6269 43.2889Z" fill="#1B1464"/>
<path d="M106.597 39.7892C106.597 39.2867 106.981 38.9277 107.455 38.9277C107.928 38.9277 108.313 39.2777 108.313 39.7892C108.313 40.3007 107.928 40.6597 107.455 40.6597C106.981 40.6597 106.597 40.2917 106.597 39.7892ZM106.865 42.3916H108.036V51.5627H106.865V42.3916Z" fill="#1B1464"/>
<path d="M114.693 51.7065C112.119 51.7065 110.162 49.8938 110.162 46.9863C110.162 44.0788 112.173 42.2661 114.729 42.2661C117.284 42.2661 119.295 44.0609 119.295 46.9863C119.295 49.9117 117.266 51.7065 114.693 51.7065ZM114.693 50.6834C116.418 50.6834 118.089 49.5079 118.089 46.9863C118.089 44.4647 116.453 43.2891 114.711 43.2891C112.968 43.2891 111.351 44.4647 111.351 46.9863C111.351 49.5079 112.959 50.6834 114.702 50.6834H114.693Z" fill="#1B1464"/>
<path d="M113.227 0.313965H125.961L124.531 5.13284H111.798L113.227 0.313965Z" fill="#1B1464"/>
</g>
<defs>
<clipPath id="clip0_43_119">
<rect width="154.931" height="68.1373" fill="white"/>
</clipPath>
</defs>
</svg>
