<svg width="27" height="27" viewBox="0 0 27 27" fill="none" xmlns="http://www.w3.org/2000/svg">
<path d="M23.0028 22.4518H19.0046V16.3382C19.0046 14.8804 18.9743 13.0043 16.9211 13.0043C14.8365 13.0043 14.5181 14.5907 14.5181 16.2306V22.4518H10.5198V9.88004H14.3606V11.5936H14.4123C14.949 10.6056 16.254 9.56278 18.2036 9.56278C22.2548 9.56278 23.004 12.1646 23.004 15.5512L23.0028 22.4518ZM6.00412 8.15981C4.71712 8.15981 3.68325 7.14327 3.68325 5.89289C3.68325 4.64362 4.71824 3.62817 6.00412 3.62817C7.28662 3.62817 8.32612 4.64362 8.32612 5.89289C8.32612 7.14327 7.28549 8.15981 6.00412 8.15981ZM8.00887 22.4518H3.99937V9.88004H8.00887V22.4518ZM25.0031 0H1.99237C0.890999 0 0 0.849684 0 1.89807V24.4488C0 25.4981 0.890999 26.3468 1.99237 26.3468H24.9998C26.1 26.3468 27 25.4981 27 24.4488V1.89807C27 0.849684 26.1 0 24.9998 0H25.0031Z" fill="#0A81E9"/>
</svg>
