<svg width="29" height="31" viewBox="0 0 29 31" fill="none" xmlns="http://www.w3.org/2000/svg">
<path d="M16.4802 0.144286C9.3084 -0.897484 2.50672 3.79742 0.544791 11.1438C-1.41714 18.4902 2.06202 26.2363 8.69597 29.2921C8.60888 28.1184 8.6882 26.9374 8.93129 25.7885C9.19897 24.5068 10.8106 17.4406 10.8106 17.4406C10.4894 16.6828 10.3288 15.8602 10.3399 15.0303C10.3399 12.7611 11.5824 11.068 13.1282 11.068C13.69 11.0592 14.2277 11.3084 14.6014 11.7508C14.975 12.1933 15.1477 12.7852 15.0743 13.3724C15.0743 14.748 14.2357 16.8292 13.7996 18.7809C13.6236 19.5072 13.7855 20.2784 14.2358 20.8586C14.6862 21.4387 15.3714 21.7585 16.0815 21.7203C18.8329 21.7203 20.6787 18.0049 20.6787 13.6194C20.6787 10.2567 18.5653 7.74062 14.6717 7.74062C12.7893 7.66392 10.9594 8.40397 9.60868 9.78817C8.25791 11.1724 7.50438 13.0798 7.52379 15.0656C7.48232 16.1554 7.81583 17.2243 8.46287 18.0755C8.71177 18.2706 8.80781 18.6161 8.6982 18.9221C8.63129 19.2042 8.46287 19.8744 8.39595 20.1213C8.36774 20.2902 8.26519 20.435 8.11958 20.5114C7.97397 20.588 7.80257 20.5872 7.65763 20.5093C5.6501 19.6627 4.70432 17.3347 4.70432 14.6776C4.70432 10.3273 8.16174 5.1187 15.0766 5.1187C20.5805 5.1187 24.2388 9.36316 24.2388 13.9015C24.2388 19.8744 21.0836 24.3658 16.4195 24.3658C15.0027 24.4132 13.6611 23.695 12.8617 22.461C12.8617 22.461 12.0229 26.0001 11.8578 26.6702C11.5207 27.8266 11.0231 28.9241 10.3812 29.927C11.7189 30.3547 13.1099 30.5688 14.5078 30.5621C18.3533 30.5647 22.042 28.9551 24.7606 26.0878C27.4792 23.2206 29.0043 19.3311 29 15.2772C28.9958 7.6452 23.6521 1.18606 16.4802 0.144286Z" fill="#0A81E9"/>
</svg>
