<svg width="30" height="30" viewBox="0 0 30 30" fill="none" xmlns="http://www.w3.org/2000/svg">
<path d="M16.5412 0C18.2294 0.0027901 19.0849 0.0117305 19.8241 0.0337363L20.1153 0.0432467C20.4516 0.0552021 20.7834 0.0702025 21.1835 0.0889532C22.7797 0.162711 23.8685 0.415215 24.8248 0.786478C25.8135 1.16775 26.6486 1.68276 27.4823 2.51655C28.3148 3.35033 28.83 4.18785 29.2125 5.17414C29.5824 6.12918 29.835 7.21922 29.91 8.81552C29.9279 9.21554 29.9422 9.54735 29.9541 9.88373L29.9635 10.1749C29.9855 10.914 29.9955 11.7696 29.9986 13.4578L29.9999 14.5763C30 14.7129 30 14.8539 30 14.9995L29.9999 15.4226L29.999 16.5412C29.9961 18.2294 29.9873 19.085 29.9652 19.8241L29.9556 20.1152C29.9437 20.4517 29.9288 20.7835 29.91 21.1834C29.8362 22.7798 29.5824 23.8685 29.2125 24.8248C28.8312 25.8136 28.3148 26.6487 27.4823 27.4825C26.6486 28.315 25.8098 28.83 24.8248 29.2125C23.8685 29.5825 22.7797 29.835 21.1835 29.91C20.7834 29.9278 20.4516 29.9424 20.1153 29.9541L19.8241 29.9635C19.0849 29.9856 18.2294 29.9955 16.5412 29.9988L15.4227 30C15.286 30 15.145 30 14.9995 30H14.5763L13.4577 29.9989C11.7696 29.9962 10.914 29.9872 10.1748 29.9652L9.8837 29.9557C9.54732 29.9437 9.2155 29.9287 8.8155 29.91C7.21919 29.8363 6.13165 29.5825 5.17413 29.2125C4.18658 28.8313 3.3503 28.315 2.51653 27.4825C1.68276 26.6487 1.16899 25.8099 0.786477 24.8248C0.415214 23.8685 0.163956 22.7798 0.0889533 21.1834C0.0711327 20.7835 0.056597 20.4517 0.0448216 20.1152L0.0353863 19.8241C0.0134406 19.085 0.00343538 18.2294 0.000195271 16.5412L0 13.4578C0.0027901 11.7696 0.0117154 10.914 0.0337212 10.1749L0.0432465 9.88373C0.055202 9.54735 0.0702027 9.21554 0.0889533 8.81552C0.162696 7.21796 0.415214 6.13042 0.786477 5.17414C1.16773 4.18661 1.68276 3.35033 2.51653 2.51655C3.3503 1.68276 4.18784 1.16899 5.17413 0.786478C6.13041 0.415215 7.21795 0.163956 8.8155 0.0889532C9.2155 0.0711475 9.54732 0.0566122 9.8837 0.0448367L10.1748 0.0354011C10.914 0.0134403 11.7696 0.00343503 13.4577 0.000194914L16.5412 0ZM14.9995 7.49922C10.855 7.49922 7.49921 10.8586 7.49921 14.9995C7.49921 19.144 10.8586 22.4997 14.9995 22.4997C19.144 22.4997 22.4997 19.1404 22.4997 14.9995C22.4997 10.855 19.1402 7.49922 14.9995 7.49922ZM14.9995 10.4993C17.4849 10.4993 19.4996 12.5134 19.4996 14.9995C19.4996 17.4849 17.4855 19.4996 14.9995 19.4996C12.5141 19.4996 10.4993 17.4856 10.4993 14.9995C10.4993 12.514 12.5133 10.4993 14.9995 10.4993ZM22.8748 5.24914C21.8408 5.24914 20.9997 6.08904 20.9997 7.12293C20.9997 8.15685 21.8396 8.99803 22.8748 8.99803C23.9086 8.99803 24.7498 8.15815 24.7498 7.12293C24.7498 6.08904 23.9072 5.24785 22.8748 5.24914Z" fill="#0A81E9"/>
</svg>
